<svg width="96" height="50" fill="none" xmlns="http://www.w3.org/2000/svg"><path d="M56.973 24.996c0 .407-.011.814 0 1.222.12 4.145-.992 7.88-2.777 11.4a54.445 54.445 0 0 0-1.686 3.616c-.425 1.014-1.016 1.725-1.935 2.14-.514.232-.99.633-1.42 1.046-1.98 1.903-4.227 3.267-6.63 4.227-1.597.637-3.24 1.198-4.975 1.173-.517-.007-1.035.178-1.553.18-.518.002-1.036-.194-1.549-.168-2.236.112-4.308-.69-6.364-1.53-2.245-.916-4.227-2.364-6.092-4.09-2.632-2.433-4.507-5.499-5.885-9.008-.743-1.892-1.348-3.844-1.519-5.943-.028-.349-.127-.694-.215-1.031-.626-2.355-.266-4.664.121-7.01.296-1.794.6-3.567 1.177-5.27 1.523-4.506 3.943-8.196 7.294-11.094 2.794-2.414 5.92-3.898 9.32-4.535 3.9-.732 7.709-.205 11.404 1.504 1.844.856 3.583 1.94 5.102 3.374 1.418 1.338 2.696 2.904 3.904 4.504 1.094 1.45 1.87 3.178 2.565 4.94 1.083 2.754 1.79 5.604 1.718 8.665-.016.566-.005 1.127-.005 1.688Zm-1.498-5.579c-.108-.962-.175-2.077-.377-3.159-.576-3.113-2.125-5.543-4.189-7.527-1.172-1.128-2.45-2.109-3.709-3.106-.426-.338-.922-.648-1.42-.752-1.28-.274-2.575-.53-3.873-.608-2.252-.133-4.275-.81-5.976-2.632-1.252-1.341-2.614-1.47-3.915-.29-1.475 1.336-3.153 2.12-4.863 2.897-1.254.57-2.46 1.286-3.666 1.994-1.007.593-1.594 1.518-1.58 2.918.008.785-.301 1.442-.926 1.877-.521.365-1.022.768-1.5 1.207-1.332 1.221-2.371 2.596-2.596 4.73-.177 1.688-.616 3.357-1.61 4.747a3.478 3.478 0 0 0-.593 1.67c-.091 1.262-.054 2.538-.027 3.808.008.34.134.703.284 1.002a24.87 24.87 0 0 0 1.12 2.055c.976 1.579 1.824 3.196 2.02 5.202.19 1.943.997 3.526 2.361 4.735 1.977 1.75 3.882 3.61 5.888 5.315 1.078.92 2.232 1.723 3.654 1.909 1.422.186 2.816.637 4.092 1.47.267.168.56.273.862.308 1.799.226 3.464-.293 5.044-1.272a23.279 23.279 0 0 1 1.518-.853c1.235-.643 2.603-1.066 3.679-1.962 1.196-.998 2.475-1.441 3.848-1.72a2.334 2.334 0 0 0 1.465-.919c.46-.609.887-1.253 1.367-1.842.497-.607.855-1.253.942-2.119.133-1.327.621-2.498 1.24-3.624 1.048-1.902 1.644-4.003 1.954-6.238.081-.586.127-1.081-.122-1.597-.721-1.489-.427-3.18-.655-4.764-.116-.857.15-1.794.262-2.862l-.003.002ZM46.793 4.546c-.305-.392-.401-.57-.54-.679-.248-.2-.52-.364-.785-.538-2.264-1.484-4.744-2.205-7.277-2.724-.51-.104-1.045-.057-1.564-.034-.135.006-.296.159-.382.296-.04.063.05.282.124.387.564.782 1.299 1.371 2.127 1.706 1.43.6 2.934.928 4.454.974.644.02 1.286.162 1.927.263.547.09 1.093.2 1.916.349ZM27.556 47.319c-1.52-1.445-2.852-2.737-4.207-3.994a158.442 158.442 0 0 0-3.417-3.05c-.128-.112-.332-.11-.614-.194 1.383 2.7 5.998 6.803 8.238 7.238ZM17.317 13.592c.917-.815 1.765-1.672 2.696-2.382 1.305-.99 1.804-2.22 1.496-4.332-.926.881-1.587 1.943-2.301 2.908-.755 1.017-1.314 2.229-1.944 3.367-.048.092.03.274.053.44Zm30.91 30.815c-.856-.068-1.716.108-2.253.645-1.018 1.018-2.228 1.53-3.46 2.04-.647.267-1.257.66-1.866 1.033-.084.052-.1.327-.083.49.006.054.234.143.328.106 1.106-.438 2.25-.792 3.297-1.378 1.284-.718 2.49-1.626 3.72-2.468.128-.084.196-.283.316-.468ZM15.562 30.284c-.246.843-.197 1.31-.043 1.807.429 1.378.69 2.834 1.462 4.038.286.447.345 1.447.873 1.23.465-.187-.079-.978-.11-1.512-.123-2.037-1.043-3.68-2.182-5.563Zm8.293-25.375.115.201c.639-.276 1.283-.537 1.916-.832a274.712 274.712 0 0 0 4.11-1.96c.275-.135.528-.352.763-.571.065-.063.054-.274.033-.404-.01-.058-.14-.121-.215-.125a1.178 1.178 0 0 0-.378.072c-1.857.614-3.608 1.522-5.283 2.625-.392.258-.71.66-1.061.994Zm32.607 21.884c.112-.152.2-.215.206-.287.181-2.22-.02-4.42-.282-6.614-.013-.11-.145-.268-.234-.282-.099-.015-.252.08-.312.183-.099.163-.16.352-.178.55-.099 1.81.004 3.627.305 5.406.06.36.315.675.495 1.044Zm-41.349-6.127c.725-.321.833-.903.911-1.429.19-1.281.663-2.515.506-3.87-.757 1.617-1.429 3.256-1.416 5.3ZM32.65 48.803c-1.624-.836-2.064-.923-3.51-.689.613.27 1.164.7 1.719.706.578.01 1.205.835 1.792-.017Z" fill="#2E2520"/><path d="M36 32.177c-1.11-.023-1.874-.564-2.439-1.609-.526-.974-1.401-1.48-2.203-2.08-1.01-.757-1.833-1.61-2.066-3.145-.162-1.04.026-1.943.389-2.764a4.44 4.44 0 0 1 1.419-1.731c.619-.443 1.132-.86 1.418-1.678.323-.94 1.138-.997 1.86-1.166.68-.16 1.371-.261 2.041-.46.917-.273 1.748-.189 2.418.642.517.644 1.122 1.106 1.796 1.497.7.406.932.88.712 1.73-.149.575-.005.968.18 1.428.202.501.41 1.01.548 1.54.461 1.763-.07 3.246-1.491 4.031-.88.486-1.555 1.135-1.775 2.275-.088.46-.334.72-.682.839-.703.24-1.416.437-2.125.651Zm4.662-7.389c.023-3.105-2-5.588-4.63-5.591-2.36 0-4.735 1.858-4.827 5.42-.074 2.85 1.967 5.505 4.627 5.515 3.239.019 4.767-2.599 4.83-5.344Zm-9.483 2.968c0-.398.033-.601-.005-.785-.349-1.686-.575-3.357.216-4.981.057-.117-.075-.358-.119-.54-.155.058-.343.07-.46.182-1.307 1.248-1.89 4.246.368 6.124Zm4.855-9.338c.547.233.86.398 1.186.501 1.205.371 2.233 1.038 2.949 2.268.14.242.323.601.593.326.143-.148.19-.598.107-.823-.111-.299-.365-.672-.608-.73-.662-.162-1.025-.72-1.456-1.206-.725-.81-1.536-1.065-2.77-.336ZM35.96 30.64l-.016-.118c-.348 0-.698-.034-1.04.015-.176.025-.335.198-.502.305.152.156.284.402.459.453.933.273 1.875.332 2.795-.087.158-.072.333-.166.432-.313.087-.126.115-.348.098-.517-.007-.062-.225-.157-.333-.137-.632.115-1.262.26-1.89.397l-.003.002Zm4.775-3.185c.647-.14.936-.564.974-1.216.028-.55.02-1.102-.02-1.65-.011-.146-.185-.275-.283-.411-.144.158-.436.371-.41.467.263.952-.286 1.804-.26 2.808v.002ZM46.653 31.754c-.037.022-.187.168-.35.188-.147.02-.363-.038-.454-.158a26.602 26.602 0 0 1-1.318-1.873c-.108-.17-.152-.626-.09-.666.201-.13.597-.265.685-.153.52.668.977 1.402 1.448 2.121.045.072.031.196.079.541ZM24.629 36.982c.24.023.715.04 1.178.132.116.023.27.285.27.442 0 .157-.133.428-.249.46-.9.26-1.796.325-2.593-.375a.48.48 0 0 1-.101-.176.538.538 0 0 1-.025-.21c.017-.104.157-.25.25-.258.346-.034.693-.015 1.27-.015ZM52.841 14.94l.34.218c-.096.201-.155.524-.296.583-.648.277-1.313.498-1.99.66-.194.045-.477-.178-.656-.361-.207-.213-.084-.674.177-.72.767-.138 1.54-.243 2.425-.38ZM29.925 41.47c.36.195.661.25.808.46.403.58.772 1.193 1.104 1.833.162.305.014.634-.258.722-.15.048-.42-.093-.53-.25a20.091 20.091 0 0 1-1.22-1.934c-.086-.16.048-.481.096-.831ZM44.054 17.215c.023-.177 0-.381.072-.46.097-.102.305-.188.405-.132.136.076.225.284.319.448.26.455.519.912.767 1.379.111.208.26.43.27.656a.952.952 0 0 1-.233.62c-.075.081-.384.03-.46-.082-.498-.736-1.095-1.426-1.14-2.428ZM45.604 9.39c-.108.753-.15 1.306-.276 1.837-.079.286-.23.539-.432.726-.142.134-.392.115-.593.164-.016-.22-.075-.447-.04-.655.105-.64.245-1.273.371-1.909.01-.05.007-.102.02-.15.099-.384.314-.676.657-.517.173.08.254.432.293.505ZM36.31 14.282c.302.044.694.068 1.068.173.128.036.317.303.294.419-.038.206-.186.477-.342.539-.247.09-.511.091-.759.004-.431-.16-.833-.213-1.263-.003-.282.137-.548-.007-.623-.335-.101-.438.183-.65.501-.713.34-.066.69-.055 1.123-.084ZM43.033 35.89c-.122.623-.215 1.169-.347 1.702-.026.105-.216.246-.296.222-.143-.04-.345-.172-.374-.309a2.384 2.384 0 0 1-.021-.902c.1-.546.2-1.065.01-1.624-.09-.267-.064-.694.285-.693.188 0 .459.271.543.495.138.358.147.779.2 1.11ZM37.729 35.73c-.07.147-.105.32-.197.393-.567.455-1.136.912-1.733 1.31-.153.102-.42.04-.615-.028-.286-.098-.345-.535-.108-.711.653-.487 1.31-.97 1.984-1.42.107-.072.323.006.462.087.095.055.135.233.207.37ZM30.496 6.493c.092.062.266.117.289.217.225.965.443 1.934.622 2.912.05.272-.26.423-.467.26-.652-.51-1.057-2.4-.677-3.19.039-.078.135-.118.233-.2ZM38.55 9.236c-.196-.152-.408-.23-.436-.362-.031-.143.07-.386.18-.501.478-.497.979-.965 1.499-1.401.175-.144.539-.246.674-.133.318.26.15.626-.071.895-.297.361-.593.742-.936 1.034-.263.22-.6.315-.91.468ZM26.157 14.34l-.477.523c-.136-.17-.337-.313-.394-.518a42.28 42.28 0 0 1-.602-2.43c-.025-.112.054-.341.135-.38.132-.063.35-.088.45 0 .197.17.423.397.488.652.17.665.26 1.36.4 2.152ZM20.94 27.745c-.438.932-.77 1.887-1.584 2.395-.137.085-.44-.024-.586-.16-.25-.23 0-.42.12-.617.383-.612.736-1.25 1.142-1.838.105-.151.37-.226.551-.205.123.013.223.256.357.425ZM25.878 27.824c.228.154.394.2.424.3.051.166.078.426 0 .54-.125.184-.339.289-.523.412-.478.319-.95.655-1.447.927a.58.58 0 0 1-.56-.053c-.278-.23-.18-.599.043-.761.682-.497 1.4-.932 2.063-1.365ZM50.595 23.604c-.176.46-.423 1.155-.716 1.823-.045.104-.328.16-.449.098-.111-.058-.233-.32-.21-.461.117-.743.247-1.488.445-2.205.06-.219.333-.418.543-.49.077-.028.28.313.377.52.055.118.01.298.01.715ZM20.802 18.065c.774.808.682 1.904.768 2.916.016.188-.185.457-.346.593-.084.071-.426-.043-.434-.109a67.372 67.372 0 0 1-.29-3.08c-.006-.087.175-.194.302-.32ZM38.88 43.063c.13.04.257.088.382.145.465.251.932.495 1.386.77.215.131.431.294.586.502.179.241-.025.705-.275.641-.843-.212-1.667-.508-2.297-1.24-.093-.11-.091-.38-.061-.56.018-.102.18-.172.28-.258ZM28.62 18.36c.044.163.197.415.143.573-.283.837-.61 1.654-.944 2.465-.041.1-.216.189-.32.172-.09-.013-.215-.16-.239-.273-.176-.904.381-2.523 1.003-2.93.064-.043.166-.006.356-.006ZM52.728 32.093c-.097-.072-.299-.16-.404-.328-.042-.067.094-.373.21-.47a19.151 19.151 0 0 1 1.601-1.233c.149-.101.458-.109.568.005.1.105.115.501.024.647-.462.75-1.045 1.32-1.998 1.379ZM49.525 38.547c-.4-.048-.574-.053-.74-.096-.071-.019-.176-.116-.177-.18a.754.754 0 0 1 .09-.403.662.662 0 0 1 .324-.236c.617-.215 1.234-.431 1.86-.606.136-.038.422.066.44.156.04.215-.008.474-.08.69-.039.114-.191.21-.308.25-.536.172-1.074.325-1.409.425ZM30.955 33.367c-.044.219-.116.703-.255 1.16-.034.113-.304.222-.428.181-.124-.041-.27-.279-.265-.427.012-.846.049-1.693.122-2.534.016-.184.216-.346.331-.518.139.17.362.32.397.515.078.436.062.895.098 1.623ZM59.856 6.91c0-1.791.373-3.15 1.118-4.074.753-.935 1.718-1.403 2.895-1.403 1.176 0 2.112.404 2.806 1.21.702.808 1.054 2.097 1.054 3.868 0 1.772-.373 3.11-1.118 4.016-.745.905-1.74 1.358-2.984 1.358-1.075 0-1.955-.36-2.64-1.078-.356-.374-.636-.89-.839-1.55-.194-.669-.292-1.451-.292-2.347Zm3.974-5.33c-.855 0-1.557.444-2.107 1.33-.542.885-.813 2.184-.813 3.897 0 1.712.258 2.962.775 3.75.516.787 1.202 1.18 2.057 1.18.863 0 1.566-.443 2.107-1.328.55-.896.826-2.19.826-3.883 0-1.702-.263-2.952-.787-3.75-.517-.797-1.203-1.195-2.058-1.195ZM69.925 11.826H68.87V1.492h1.054v4.754h4.126V1.492h1.054v10.334h-1.054V6.393h-4.126v5.433ZM80.523 11.826h-.165l1.104-10.334h.42l2.666 9.552L87.2 1.492h.42l1.104 10.334h-1.054l-.876-8.267-2.298 8.267h-.8l-2.324-8.164-.85 8.164ZM95.759 1.492c.16.187.241.428.241.724 0 .246-.047.497-.14.752l-2.272 5.36v3.498h-1.054V8.652l-2.54-7.16h1.08l2.425 6.658 2.209-5.182c.093-.246.14-.501.14-.767s-.064-.473-.19-.62l.1-.089ZM1.79 14.541a36.565 36.565 0 0 1 1.924-.052c.642 0 1.313.078 2.014.234.716.156 1.417.451 2.103.885.701.416 1.29.962 1.768 1.639.492.659.887 1.534 1.186 2.627.298 1.093.447 2.42.447 3.98s-.223 2.966-.67 4.214c-.433 1.232-1.03 2.177-1.79 2.836-1.478 1.283-3.26 1.925-5.349 1.925-.73 0-1.499-.035-2.304-.104H0V14.54h1.79Zm.067 17.976c.313.034.709.052 1.186.052s.835-.009 1.074-.026c.239-.017.567-.087.985-.208.417-.139.805-.321 1.163-.547.358-.225.731-.555 1.119-.988.403-.451.746-.98 1.03-1.587.64-1.422.961-3.278.961-5.567 0-1.63-.171-3.035-.514-4.214-.343-1.197-.739-2.081-1.186-2.654a4.73 4.73 0 0 0-1.589-1.352c-.626-.347-1.126-.547-1.5-.599a9.507 9.507 0 0 0-1.297-.078c-.492 0-.97.026-1.432.078v17.69ZM60.22 32.725h-.291v-18.21h.76l9.308 16.831V14.515h.291v18.21h-1.633l-8.436-15.088v15.088ZM84.066 14.515h.291v10.406c0 2.723-.462 4.726-1.387 6.009-.925 1.266-2.133 1.899-3.625 1.899-.94 0-1.738-.095-2.394-.286-.656-.208-1.275-.581-1.857-1.119-1.193-1.075-1.79-3.243-1.79-6.503V14.515h1.857v10.38c0 3.156.41 5.263 1.23 6.321.418.52.85.876 1.298 1.067.463.19 1.015.286 1.656.286 1.432 0 2.573-.607 3.424-1.821.865-1.232 1.297-3.183 1.297-5.853v-10.38ZM91.99 32.725h-1.857v-17.95h-3.87v-.26h9.62v.26H91.99v17.95Z" fill="#2E2520"/></svg>