<svg version="1.0" xmlns="http://www.w3.org/2000/svg" width="437.333" height="437.333" viewBox="0 0 328 328"><path d="M165 17.7c0 .7-1.9 1.1-5.5.9-3.2-.1-5.5.3-5.5.9 0 .5-.5.3-1-.5-.7-1.1-1-1.1-1-.2 0 .7-.4 1-1 .7-.5-.3-1.9-.1-3.1.6-1.7.9-2 .8-1.4-.2.6-.8.4-1-.5-.4-.7.4-3.1 1-5.4 1.3-2.3.2-4.7.9-5.5 1.6-1.2.9-1.3.8-.6-.4.8-1.3.7-1.3-.8-.1-1 .8-2 1.1-2.4.8-.3-.4-1.4-.2-2.4.3-1.2.7-2 .7-2.4 0-.5-.8-1.2-.7-2.2.2-.8.6-2.4 1.3-3.5 1.5-1 .2-3.9 1.2-6.4 2.3-2.5 1.2-4.9 1.8-5.5 1.5-.5-.4-.8-.1-.7.5.2.7-.8 1.4-2.2 1.6-1.3.3-2.7.8-3 1.2-.3.4-1.8 1.4-3.5 2.2-1.6.8-3.6 2.1-4.3 2.8-.8.7-1.8 1-2.3.6-.5-.3-.8 0-.7.8.2.7-.3 1.2-.9 1-.7-.1-1.3.2-1.3.8 0 .5-.7 1-1.5 1s-1.5.5-1.5 1.2c0 .6-.3.9-.6.5-.4-.3-1.3.1-2.1.9s-1.9 1.1-2.5.8c-.6-.4-.8-.2-.5.3.4.6-.8 2.5-2.7 4.1-1.9 1.7-3.2 3.3-2.9 3.6.3.3-.4.3-1.6.1-2.2-.4-3 .5-3.5 4.2-.2 1-.6 1.7-.9 1.6-.8-.3-5.4 4-5.2 4.7.1.3-.6 1.3-1.7 2.2-1 1-1.8 1.5-1.8 1.1 0-.4-.8.4-1.7 1.7-1 1.4-1.5 2.6-1.3 2.8.3.2-.3.8-1.3 1.3-.9.6-1.4 1.6-1.1 2.2.4.7.4.9-.1.5-.8-.8-3.5 1.5-3.5 3 0 .6-.7 1.3-1.6 1.6-.8.3-1.3 1-1 1.5.3.5-.1 1.1-.9 1.5-.8.3-1.5 1.2-1.5 2.1 0 .8-.6 1.5-1.3 1.5-.8 0-1.4.7-1.5 1.5-.1.8-.3 2.2-.4 3-.1.8-.5 1.2-.9 1-.3-.3-1.2.2-1.8.9-.9 1-.9 1.6-.1 2.1s.5 1.1-.7 2.1c-1 .7-1.5 1.4-1 1.4.4 0 .1 1.3-.8 3-.9 1.6-1.2 3-.8 3 .5 0 0 .5-1.1 1.1-1.5.9-1.6 1.3-.5 2 1 .6 1.1.9.2.9-.7 0-1.3.9-1.3 2s-.4 2-1 2c-.5 0-.7.7-.4 1.5.4.9 0 1.5-.7 1.5-1.2 0-1.2.2-.1.9 1.1.7 1 .9-.3 1.5-.9.3-1.3 1-1 1.6.3.5 0 1-.8 1-1.4 0-1.7 1.1-1.7 5.7 0 9.3-.2 11.8-.9 12.8-.5.5-.7 1.8-.6 2.7.2 1 0 1.8-.5 1.8-.4 0-.6 1.8-.3 4 .4 3 .2 4-.8 4-1.2 0-1.1.2 0 .9 1.2.8 1.2 1.2.2 2.4-.8 1-.8 1.7-.2 2.1.6.4.7 1.6.2 2.9-.5 1.2-.7 3-.6 3.9.2 1-.1 2-.5 2.3-.5.3-.7 1.4-.5 2.5.2 1.1-.1 2-.7 2s-.3.9.7 2c1.4 1.5 1.5 2 .4 2-.9 0-1 .3-.4.8.6.4 1 2.4 1 4.4-.1 2.1.4 3.8 1 3.8s.6.3-.1.8c-1.4.9-1.5 4.3-.1 5.9.6.9.6 1.3-.1 1.3-1.5 0 1.2 7.1 3.1 8.2.9.5 1.4 1.5 1.1 2.3-.4.9 0 1.5.7 1.5.9 0 1 .3.2 1.1-.7.7-.8 2.1-.3 3.9.5 1.6.6 3.1.2 3.4-.3.3 0 .6.6.6.7 0 1.1.3 1.1.7-.3 2.1.2 3.3 1.2 2.7.7-.4.9 0 .5 1.4-.4 1.1-.2 2.3.4 2.7.6.3.8 1.1.5 1.6-.4.5-.1.9.6.9.8 0 .9.3 0 1.4-.8 1-.8 1.6.2 2.5.8.6 1.7.8 2.1.4.4-.4.4 0 0 1-.3 1-.1 1.7.6 1.7.6 0 .8.4.5 1-.3.5.3 1 1.4 1 1.2 0 2.1.3 2.1.7 0 .5 1.3 2.2 3 4 1.7 1.8 3.1 4.4 3.2 6.2.1 1.7.6 3.1 1.1 3.1.4 0 .6.4.2.9-.3.6.4 1.5 1.5 2.1 1.2.6 1.8 1.6 1.4 2.3-.4.7-.4.9.1.5.4-.4 1.4 0 2.2.8.8.8 1.9 1.2 2.4.8.5-.3.8 0 .7.8-.2.7.3 1.2 1 1 .8-.1 1.1.2.7.8-.3.5.1 1.3.9 1.6.9.3 1.6 1.2 1.6 1.9 0 .8.9 1.7 2 2 1.1.4 1.8 1 1.5 1.5-.3.5.4 1.4 1.5 2 1.1.6 1.9 1.4 1.9 1.8-.3 1.9.2 3.3 1 2.8.5-.3 2.2 1 3.8 2.9 1.7 1.9 3.3 3.2 3.6 2.8.4-.3.7-.2.7.3s1.4 1.8 3.2 2.8c1.7 1.1 4 2.6 5 3.5 1 .9 2.1 1.5 2.3 1.3.9-.4 4.2 3.3 3.7 4.2-.3.5 0 .6.5.3.6-.4 2.3.5 3.9 1.8 1.6 1.4 3.5 2.5 4.2 2.5.6 0 1.2.3 1.2.8 0 .4.9 1.3 2.1 2 1.2.8 1.8.9 1.5.3-.4-.7-.1-.8.8-.5.9.3 1.6 1.1 1.6 1.8 0 .6.9 1.8 2 2.6s2 2 2 2.6c0 .7.8 1 2.2.6 1.4-.3 1.9-.2 1.4.6s0 1.1 1.6.8c1.3-.2 3.1.1 4 .6 1.3.6 1.8.5 1.8-.4 0-.8.3-.9.8-.3.4.6 1.7 1 3 .9 1.2-.1 2.2.3 2.2.7 0 .5.9.9 2 .9s2 .5 2 1.1c0 .8.5.8 1.5-.1.8-.7 1.5-.9 1.5-.4s1.6 1 3.6 1c2 .1 4 .8 4.5 1.5.7 1.2.9 1.1.9-.1.1-1.3.2-1.2 1 .1.6 1.1 1.8 1.5 3.5 1.2 1.3-.3 3.3-.2 4.2.2 2.1.9 4.4 1.3 10.1 1.6 2.3.1 4.2.7 4.2 1.2s.6.5 1.3-.2c1-.8 1.7-.7 2.7.2 1 1 1.1.9.5-.3-.8-1.3-.6-1.3.7-.2 1.1.9 1.8 1 2.3.2.3-.6 1.2-.7 1.8-.3 1.8 1.2 8.7 1.1 8.7-.1 0-.6.5-.4 1 .4.8 1.2 1 1.2 1 .1 0-.8.3-1.1.6-.8.4.3 1.6.2 2.7-.4 1.2-.7 1.7-.7 1.3-.1-.3.5.1 1.2.9 1.6.8.3 1.5.2 1.5-.3s1.2-.9 2.8-.9c4.5 0 7.2-.6 7.2-1.5 0-.4.4-.6.9-.3s1.2-.1 1.5-1c.3-.9 1.2-1.4 2-1.1.8.3 2.2 0 3.2-.8 1.1-.7 2.2-1.3 2.7-1.4.4 0 1-.2 1.5-.2 2.1-.4 3-.5 6-1.3 1.7-.4 3.2-1.2 3.2-1.7s.5-.9 1.1-.9c.5 0 .7.6.3 1.2-.5.7.8.1 2.7-1.3 5.1-3.8 6.4-4.5 5.4-2.8-.5.8.2.5 1.5-.6 1.5-1.3 2.1-1.5 1.6-.5-.4.8.4.3 1.8-1.2 1.4-1.6 3-2.8 3.6-2.8.5 0 1-.4 1-.9s1.2-1.2 2.8-1.7c1.5-.4 2.9-.8 3.2-1l2.7-.9c1.3-.4 2.1-1.1 1.8-1.5-.3-.5.3-1.1 1.4-1.5 1-.3 1.8-1.3 1.7-2.1-.4-2.6 6.1-8.5 9-8.3.3 0 1.4-.9 2.3-2 1-1.1 2-1.8 2.3-1.5.3.2.4-.7.2-2.1-.1-1.8.2-2.5 1-2.2.7.3 1.3-.4 1.3-1.5.1-1.1 1-2.6 2-3.4 1-.7 1.4-1.4.9-1.4-.5 0 .1-.8 1.2-1.9 1.2-1 1.9-2.1 1.5-2.5-.3-.3.1-.6 1.1-.6.9 0 1.4-.5 1.1-1-.3-.6 0-1.6.7-2.3.7-.8 2.4-2.8 3.8-4.6 1.4-1.8 3-3.8 3.6-4.5 1.1-1.1 2.8-5.5 2.6-6.6 0-.3.6-1.3 1.5-2.2.8-.9 1.2-2.2.7-2.9-.4-.8-.3-1 .4-.5.7.4 1.2.2 1.2-.3 0-2.2.2-2.6 1.8-4.5 1.3-1.5 1.3-1.7.2-1.1-1.2.7-1.3.6-.3-.7.7-.8 1-1.8.6-2.1-.3-.4-.1-.7.6-.7s1-.4.6-.9c-.3-.5-.1-1.2.3-1.5.5-.3.9-2 1-3.8.1-1.8.4-4.4.8-5.8 1.5-5.9 2-13 1-13.4-.7-.3-.7-.5.1-.5.6-.1.9-1 .6-2.1-.7-2.6.5-7.2 1.7-6.5 1.1.7 2.3-3.1 1.4-4.6-.4-.7-.3-.9.3-.6.6.4 1.4-.1 1.7-1 .4-.9.2-2-.5-2.3-.8-.6-.8-1.3 0-2.8.8-1.5.8-2.3 0-2.8-.8-.4-.7-.9.2-1.5.8-.5.9-.9.3-.9-.7 0-1-1.8-.9-4.8.1-2.6-.2-5.5-.7-6.6-.7-1.3-.7-1.6.1-1.2.6.4 1.1.2 1.1-.3 0-.6-.4-1.1-.8-1.1s-.7-1.2-.6-2.8c.1-1.5-.4-3.3-1-4.1-.9-1.2-.8-1.3.3-.6 1.1.6 1.2.5.5-.6-1-1.7-1.5-3.8-1.5-6.2 0-.9-.4-1.7-.9-1.7s-.7-.9-.5-2c.2-1.1-.2-2-.8-2-.7 0-.6-.4.3-1 .8-.5 1-1 .3-1-.6 0-1-.8-.8-1.8.1-.9-.2-2.3-.8-3-.5-.6-.6-1.2-.2-1.2.4 0 .1-.8-.6-1.7-1-1.1-1-1.4-.1-.9.6.4 1.2.2 1.2-.3 0-.6-.5-1.1-1.1-1.1-.5 0-.8-.4-.4-.9.3-.5.1-1.2-.5-1.6-.6-.4-.8-1.1-.4-1.6.3-.6-.1-1.8-.9-2.7-.8-.9-1.5-2.4-1.5-3.2-.1-1.4-.8-4.8-1.2-6-.1-.3-.2-.8-.1-1.3 0-.4-.4-.7-1.1-.7-.6 0-.9-.3-.5-.6.3-.4-.3-2.4-1.4-4.5-1.1-2.2-1.6-3.9-1.2-3.9.5 0 .1-.5-.7-1-.8-.5-1.6-1.8-1.6-3-.3-4.7-.4-5.1-1.4-4.5-.5.3-1 0-1-.7 0-.8-.9-2-1.9-2.8-1.1-.7-1.8-1.7-1.5-2.2.3-.4-.1-1.1-.9-1.4-.9-.3-2.1-2-2.8-3.7-1.4-3.4-4.4-6.8-5.2-6-.3.3-.3-.4 0-1.6.4-1.5.1-2.1-1.2-2.1-.9 0-1.9-.9-2.2-2-.3-1.1-.9-1.7-1.4-1.4-.5.3-.9-.2-.9-1 0-.9-.7-1.6-1.6-1.6-.8 0-1.2-.5-.9-1 .3-.6 0-1-.7-1s-2.2-1.2-3.2-2.7c-1.3-1.7-1.4-2.4-.5-1.9.8.4.6.1-.5-.8-1-.8-1.5-1.9-1.1-2.5.3-.6.1-1.1-.4-1.1-.6 0-1.1-.7-1.1-1.5s-.4-1.5-1-1.5c-.5 0-1-.6-1-1.4 0-.9-.7-1.2-2-.9-1.1.3-2 .1-2-.4s-3-2.5-6.7-4.3c-3.8-1.9-7-3.8-7.1-4.2-.2-.4-.8-.6-1.3-.2-.5.3-.9.1-.9-.5 0-.5-.9-.8-1.9-.6-1.1.2-2.2-.3-2.5-1.1-.3-.7-1.2-1.1-2.1-.8-.8.3-1.5.1-1.5-.5s-.7-1.1-1.5-1.1-1.5-.5-1.5-1.1c0-.5-.4-.8-.9-.4-.5.3-1.3 0-1.6-.6-.4-.5-1.3-.8-2.1-.5-.8.3-1.4.1-1.4-.3 0-.5-.7-1.2-1.6-1.5-1-.4-1.3-.2-.8.7.4.6-.3.3-1.5-.8-1.3-1.1-2.5-1.9-2.7-1.8-1.3.8-4.4.1-3.8-.8.4-.8 0-.8-1.5 0-1.4.8-2.1.8-2.1.1 0-.5-.6-1-1.4-1-.8 0-1.6-.3-1.8-.8-.5-1.2-7.9-4.3-8.9-3.7-.5.4-.9.1-.9-.5s-.4-.9-.9-.5c-.5.3-1.2.1-1.6-.4-.3-.6-1.2-.8-2-.4-.9.3-1.5-.1-1.5-.8 0-1.1-.3-1.1-1 .1-.5.8-1 1-1 .4 0-1.4-11-.8-13.6.9-.7.4-1.7 0-2.4-.8-1-1.2-1.6-1.3-2.7-.3-1.1.9-1.6.9-2.4-.3-.5-.8-.9-.9-.9-.2z"/></svg>