<?xml version="1.0" standalone="no"?>
<!DOCTYPE svg PUBLIC "-//W3C//DTD SVG 20010904//EN"
 "http://www.w3.org/TR/2001/REC-SVG-20010904/DTD/svg10.dtd">
<svg version="1.0" xmlns="http://www.w3.org/2000/svg"
 width="328.000000pt" height="328.000000pt" viewBox="0 0 328.000000 328.000000"
 preserveAspectRatio="xMidYMid meet">
<metadata>
Created by potrace 1.14, written by Peter Selinger 2001-2017
</metadata>
<g transform="translate(0.000000,328.000000) scale(0.100000,-0.100000)"
fill="#000000" stroke="none">
<path d="M1650 3103 c0 -7 -19 -11 -55 -9 -32 1 -55 -3 -55 -9 0 -5 -5 -3 -10
5 -7 11 -10 11 -10 2 0 -7 -4 -10 -10 -7 -5 3 -19 1 -31 -6 -17 -9 -20 -8 -14
2 6 8 4 10 -5 4 -7 -4 -31 -10 -54 -13 -23 -2 -47 -9 -55 -16 -12 -9 -13 -8
-6 4 8 13 7 13 -8 1 -10 -8 -20 -11 -24 -8 -3 4 -14 2 -24 -3 -12 -7 -20 -7
-24 0 -5 8 -12 7 -22 -2 -8 -6 -24 -13 -35 -15 -10 -2 -39 -12 -64 -23 -25
-12 -49 -18 -55 -15 -5 4 -8 1 -7 -5 2 -7 -8 -14 -22 -16 -13 -3 -27 -8 -30
-12 -3 -4 -18 -14 -35 -22 -16 -8 -36 -21 -43 -28 -8 -7 -18 -10 -23 -6 -5 3
-8 0 -7 -8 2 -7 -3 -12 -9 -10 -7 1 -13 -2 -13 -8 0 -5 -7 -10 -15 -10 -8 0
-15 -5 -15 -12 0 -6 -3 -9 -6 -5 -4 3 -13 -1 -21 -9 -8 -8 -19 -11 -25 -8 -6
4 -8 2 -5 -3 4 -6 -8 -25 -27 -41 -19 -17 -32 -33 -29 -36 3 -3 -4 -3 -16 -1
-22 4 -30 -5 -35 -42 -2 -10 -6 -17 -9 -16 -8 3 -54 -40 -52 -47 1 -3 -6 -13
-17 -22 -10 -10 -18 -15 -18 -11 0 4 -8 -4 -17 -17 -10 -14 -15 -26 -13 -28 3
-2 -3 -8 -13 -13 -9 -6 -14 -16 -11 -22 4 -7 4 -9 -1 -5 -8 8 -35 -15 -35 -30
0 -6 -7 -13 -16 -16 -8 -3 -13 -10 -10 -15 3 -5 -1 -11 -9 -15 -8 -3 -15 -12
-15 -21 0 -8 -6 -15 -13 -15 -8 0 -14 -7 -15 -15 -1 -8 -3 -22 -4 -30 -1 -8
-5 -12 -9 -10 -3 3 -12 -2 -18 -9 -9 -10 -9 -16 -1 -21 8 -5 5 -11 -7 -21 -10
-7 -15 -14 -10 -14 4 0 1 -13 -8 -30 -9 -16 -12 -30 -8 -30 5 0 0 -5 -11 -11
-15 -9 -16 -13 -5 -20 10 -6 11 -9 2 -9 -7 0 -13 -9 -13 -20 0 -11 -4 -20 -10
-20 -5 0 -7 -7 -4 -15 4 -9 0 -15 -7 -15 -12 0 -12 -2 -1 -9 11 -7 10 -9 -3
-15 -9 -3 -13 -10 -10 -16 3 -5 0 -10 -8 -10 -14 0 -17 -11 -17 -57 0 -93 -2
-118 -9 -128 -5 -5 -7 -18 -6 -27 2 -10 0 -18 -5 -18 -4 0 -6 -18 -3 -40 4
-30 2 -40 -8 -40 -12 0 -11 -2 0 -9 12 -8 12 -12 2 -24 -8 -10 -8 -17 -2 -21
6 -4 7 -16 2 -29 -5 -12 -7 -30 -6 -39 2 -10 -1 -20 -5 -23 -5 -3 -7 -14 -5
-25 2 -11 -1 -20 -7 -20 -6 0 -3 -9 7 -20 14 -15 15 -20 4 -20 -9 0 -10 -3 -4
-8 6 -4 10 -24 10 -44 -1 -21 4 -38 10 -38 6 0 6 -3 -1 -8 -14 -9 -15 -43 -1
-59 6 -9 6 -13 -1 -13 -15 0 12 -71 31 -82 9 -5 14 -15 11 -23 -4 -9 0 -15 7
-15 9 0 10 -3 2 -11 -7 -7 -8 -21 -3 -39 5 -16 6 -31 2 -34 -3 -3 0 -6 6 -6 7
0 11 -3 11 -7 -3 -21 2 -33 12 -27 7 4 9 0 5 -14 -4 -11 -2 -23 4 -27 6 -3 8
-11 5 -16 -4 -5 -1 -9 6 -9 8 0 9 -3 0 -14 -8 -10 -8 -16 2 -25 8 -6 17 -8 21
-4 4 4 4 0 0 -10 -3 -10 -1 -17 6 -17 6 0 8 -4 5 -10 -3 -5 3 -10 14 -10 12 0
21 -3 21 -7 0 -5 13 -22 30 -40 17 -18 31 -44 32 -62 1 -17 6 -31 11 -31 4 0
6 -4 2 -9 -3 -6 4 -15 15 -21 12 -6 18 -16 14 -23 -4 -7 -4 -9 1 -5 4 4 14 0
22 -8 8 -8 19 -12 24 -8 5 3 8 0 7 -8 -2 -7 3 -12 10 -10 8 1 11 -2 7 -8 -3
-5 1 -13 9 -16 9 -3 16 -12 16 -19 0 -8 9 -17 20 -20 11 -4 18 -10 15 -15 -3
-5 4 -14 15 -20 11 -6 19 -14 19 -18 -3 -19 2 -33 10 -28 5 3 22 -10 38 -29
17 -19 33 -32 36 -28 4 3 7 2 7 -3 0 -5 14 -18 32 -28 17 -11 40 -26 50 -35
10 -9 21 -15 23 -13 9 4 42 -33 37 -42 -3 -5 0 -6 5 -3 6 4 23 -5 39 -18 16
-14 35 -25 42 -25 6 0 12 -3 12 -8 0 -4 9 -13 21 -20 12 -8 18 -9 15 -3 -4 7
-1 8 8 5 9 -3 16 -11 16 -18 0 -6 9 -18 20 -26 11 -8 20 -20 20 -26 0 -7 8
-10 22 -6 14 3 19 2 14 -6 -5 -8 0 -11 16 -8 13 2 31 -1 40 -6 13 -6 18 -5 18
4 0 8 3 9 8 3 4 -6 17 -10 30 -9 12 1 22 -3 22 -7 0 -5 9 -9 20 -9 11 0 20 -5
20 -11 0 -8 5 -8 15 1 8 7 15 9 15 4 0 -5 16 -10 36 -10 20 -1 40 -8 45 -15 7
-12 9 -11 9 1 1 13 2 12 10 -1 6 -11 18 -15 35 -12 13 3 33 2 42 -2 21 -9 44
-13 101 -16 23 -1 42 -7 42 -12 0 -5 6 -5 13 2 10 8 17 7 27 -2 10 -10 11 -9
5 3 -8 13 -6 13 7 2 11 -9 18 -10 23 -2 3 6 12 7 18 3 18 -12 87 -11 87 1 0 6
5 4 10 -4 8 -12 10 -12 10 -1 0 8 3 11 6 8 4 -3 16 -2 27 4 12 7 17 7 13 1 -3
-5 1 -12 9 -16 8 -3 15 -2 15 3 0 5 12 9 28 9 45 0 72 6 72 15 0 4 4 6 9 3 5
-3 12 1 15 10 3 9 12 14 20 11 8 -3 22 0 32 8 11 7 22 13 27 14 4 0 10 2 15 2
21 4 30 5 60 13 17 4 32 12 32 17 0 5 5 9 11 9 5 0 7 -6 3 -12 -5 -7 8 -1 27
13 51 38 64 45 54 28 -5 -8 2 -5 15 6 15 13 21 15 16 5 -4 -8 4 -3 18 12 14
16 30 28 36 28 5 0 10 4 10 9 0 5 12 12 28 17 15 4 29 8 32 10 3 1 15 5 27 9
13 4 21 11 18 15 -3 5 3 11 14 15 10 3 18 13 17 21 -4 26 61 85 90 83 3 0 14
9 23 20 10 11 20 18 23 15 3 -2 4 7 2 21 -1 18 2 25 10 22 7 -3 13 4 13 15 1
11 10 26 20 34 10 7 14 14 9 14 -5 0 1 8 12 19 12 10 19 21 15 25 -3 3 1 6 11
6 9 0 14 5 11 10 -3 6 0 16 7 23 7 8 24 28 38 46 14 18 30 38 36 45 11 11 28
55 26 66 0 3 6 13 15 22 8 9 12 22 7 29 -4 8 -3 10 4 5 7 -4 12 -2 12 3 0 22
2 26 18 45 13 15 13 17 2 11 -12 -7 -13 -6 -3 7 7 8 10 18 6 21 -3 4 -1 7 6 7
7 0 10 4 6 9 -3 5 -1 12 3 15 5 3 9 20 10 38 1 18 4 44 8 58 15 59 20 130 10
134 -7 3 -7 5 1 5 6 1 9 10 6 21 -7 26 5 72 17 65 11 -7 23 31 14 46 -4 7 -3
9 3 6 6 -4 14 1 17 10 4 9 2 20 -5 23 -8 6 -8 13 0 28 8 15 8 23 0 28 -8 4 -7
9 2 15 8 5 9 9 3 9 -7 0 -10 18 -9 48 1 26 -2 55 -7 66 -7 13 -7 16 1 12 6 -4
11 -2 11 3 0 6 -4 11 -8 11 -4 0 -7 12 -6 28 1 15 -4 33 -10 41 -9 12 -8 13 3
6 11 -6 12 -5 5 6 -10 17 -15 38 -15 62 0 9 -4 17 -9 17 -5 0 -7 9 -5 20 2 11
-2 20 -8 20 -7 0 -6 4 3 10 8 5 10 10 3 10 -6 0 -10 8 -8 18 1 9 -2 23 -8 30
-5 6 -6 12 -2 12 4 0 1 8 -6 17 -10 11 -10 14 -1 9 6 -4 12 -2 12 3 0 6 -5 11
-11 11 -5 0 -8 4 -4 9 3 5 1 12 -5 16 -6 4 -8 11 -4 16 3 6 -1 18 -9 27 -8 9
-15 24 -15 32 -1 14 -8 48 -12 60 -1 3 -2 8 -1 13 0 4 -4 7 -11 7 -6 0 -9 3
-5 6 3 4 -3 24 -14 45 -11 22 -16 39 -12 39 5 0 1 5 -7 10 -8 5 -16 18 -16 30
-3 47 -4 51 -14 45 -5 -3 -10 0 -10 7 0 8 -9 20 -19 28 -11 7 -18 17 -15 22 3
4 -1 11 -9 14 -9 3 -21 20 -28 37 -14 34 -44 68 -52 60 -3 -3 -3 4 0 16 4 15
1 21 -12 21 -9 0 -19 9 -22 20 -3 11 -9 17 -14 14 -5 -3 -9 2 -9 10 0 9 -7 16
-16 16 -8 0 -12 5 -9 10 3 6 0 10 -7 10 -7 0 -22 12 -32 27 -13 17 -14 24 -5
19 8 -4 6 -1 -5 8 -10 8 -15 19 -11 25 3 6 1 11 -4 11 -6 0 -11 7 -11 15 0 8
-4 15 -10 15 -5 0 -10 6 -10 14 0 9 -7 12 -20 9 -11 -3 -20 -1 -20 4 0 5 -30
25 -67 43 -38 19 -70 38 -71 42 -2 4 -8 6 -13 2 -5 -3 -9 -1 -9 5 0 5 -9 8
-19 6 -11 -2 -22 3 -25 11 -3 7 -12 11 -21 8 -8 -3 -15 -1 -15 5 0 6 -7 11
-15 11 -8 0 -15 5 -15 11 0 5 -4 8 -9 4 -5 -3 -13 0 -16 6 -4 5 -13 8 -21 5
-8 -3 -14 -1 -14 3 0 5 -7 12 -16 15 -10 4 -13 2 -8 -7 4 -6 -3 -3 -15 8 -13
11 -25 19 -27 18 -13 -8 -44 -1 -38 8 4 8 0 8 -15 0 -14 -8 -21 -8 -21 -1 0 5
-6 10 -14 10 -8 0 -16 3 -18 8 -5 12 -79 43 -89 37 -5 -4 -9 -1 -9 5 0 6 -4 9
-9 5 -5 -3 -12 -1 -16 4 -3 6 -12 8 -20 4 -9 -3 -15 1 -15 8 0 11 -3 11 -10
-1 -5 -8 -10 -10 -10 -4 0 14 -110 8 -136 -9 -7 -4 -17 0 -24 8 -10 12 -16 13
-27 3 -11 -9 -16 -9 -24 3 -5 8 -9 9 -9 2z"/>
</g>
</svg>
