<svg aria-hidden="true" style="width:0;height:0;position:absolute;overflow:hidden" xmlns="http://www.w3.org/2000/svg"><defs><symbol id="chat" viewBox="0 0 31 32"><path d="M23.636 14.939c0-6.705-5.914-11.099-11.818-11.099C5.89 3.84 0 8.255 0 14.939c0 2.529.927 5.001 2.609 6.963.064.075.089.189.064.297-.529 2.314-1.78 4.404-2.294 5.196a.922.922 0 0 0-.069.85c.115.272.342.438.596.438h.017c2.514-.075 5.427-.923 7.228-3.039a.23.23 0 0 1 .242-.078 12.54 12.54 0 0 0 3.424.473c5.926 0 11.818-4.414 11.818-11.099zm-15.034 9.58c-.391-.111-.795.023-1.08.358-1.801 2.116-4.742 2.597-6.134 2.704.636-1.049 1.67-2.976 2.155-5.099.111-.485-.006-1.003-.304-1.351C1.71 19.348.901 17.207.901 14.938c0-5.527 4.898-10.024 10.918-10.024s10.918 4.497 10.918 10.024c0 5.527-4.898 10.024-10.918 10.024-1.095 0-2.177-.149-3.216-.444z"/><path d="M26.53 23.875c2.624-1.584 4.19-4.285 4.19-7.224 0-4.154-3.142-7.703-7.471-8.44-.246-.042-.474.163-.509.457s.136.566.382.608c3.881.66 6.698 3.762 6.698 7.375 0 2.525-1.382 4.867-3.696 6.264-.45.272-.691.873-.586 1.461.219 1.232.686 2.373 1.06 3.147-2.657-.529-3.665-2.052-3.983-2.712-.197-.407-.564-.659-.961-.659H21.618c-.499 0-.999-.041-1.485-.123-.245-.041-.474.164-.508.458s.137.566.383.607a9.708 9.708 0 0 0 1.61.133h.037c.075 0 .144.046.181.122 1.219 2.524 4.02 3.169 5.168 3.329.254.035.495-.103.63-.362s.133-.578-.004-.835c-.346-.644-.963-1.932-1.212-3.328-.02-.111.026-.226.112-.278zM4.815 13.016c-.86 0-1.56.836-1.56 1.864s.7 1.864 1.56 1.864c.86 0 1.56-.836 1.56-1.864s-.7-1.864-1.56-1.864zm0 2.652c-.364 0-.66-.354-.66-.788s.296-.788.66-.788.66.354.66.788c0 .435-.296.788-.66.788zM9.265 13.016c-.86 0-1.56.836-1.56 1.864s.7 1.864 1.56 1.864c.86 0 1.56-.836 1.56-1.864s-.7-1.864-1.56-1.864zm0 2.652c-.364 0-.66-.354-.66-.788s.296-.788.66-.788.66.354.66.788c0 .435-.296.788-.66.788zM13.714 13.016c-.86 0-1.56.836-1.56 1.864s.7 1.864 1.56 1.864c.86 0 1.56-.836 1.56-1.864s-.7-1.864-1.56-1.864zm0 2.652c-.364 0-.66-.354-.66-.788s.296-.788.66-.788.66.354.66.788c0 .435-.296.788-.66.788zM18.163 13.016c-.86 0-1.56.836-1.56 1.864s.7 1.864 1.56 1.864c.86 0 1.56-.836 1.56-1.864s-.7-1.864-1.56-1.864zm0 2.652c-.364 0-.66-.354-.66-.788s.296-.788.66-.788.66.354.66.788c0 .435-.296.788-.66.788z"/></symbol><symbol id="clock" viewBox="0 0 32 32"><path d="M16 0C7.178 0 0 7.178 0 16s7.178 16 16 16 16-7.178 16-16S24.822 0 16 0zm0 30.933C7.766 30.933 1.067 24.234 1.067 16S7.766 1.067 16 1.067 30.933 7.766 30.933 16 24.234 30.933 16 30.933z"/><path d="M16.533 13.878V8.469a.533.533 0 1 0-1.066 0v5.409a2.13 2.13 0 0 0-1.524 1.524h-3.809a.533.533 0 1 0 0 1.066h3.809a2.132 2.132 0 0 0 2.058 1.6 2.135 2.135 0 0 0 2.133-2.133c0-.992-.683-1.819-1.6-2.058zM16 17.002a1.068 1.068 0 0 1 0-2.134 1.068 1.068 0 0 1 0 2.134zM16 5.269a.533.533 0 0 0 .533-.533v-.533a.533.533 0 1 0-1.066 0v.533c0 .295.239.533.533.533zM16 26.602a.533.533 0 0 0-.533.533v.533a.533.533 0 1 0 1.066 0v-.533a.533.533 0 0 0-.533-.533zM27.733 15.402H27.2a.533.533 0 1 0 0 1.066h.533a.533.533 0 1 0 0-1.066zM4.8 15.402h-.533a.533.533 0 1 0 0 1.066H4.8a.533.533 0 1 0 0-1.066zM23.919 7.262l-.377.377a.532.532 0 0 0 .377.91.532.532 0 0 0 .377-.156l.377-.377a.534.534 0 0 0-.754-.754zM7.703 23.478l-.377.377a.532.532 0 0 0 .377.91.532.532 0 0 0 .377-.156l.377-.377a.534.534 0 0 0-.754-.754zM24.297 23.478a.533.533 0 1 0-.754.754l.377.377a.532.532 0 1 0 .754-.754l-.377-.377zM8.081 7.261a.533.533 0 1 0-.754.754l.377.377a.532.532 0 1 0 .754-.754l-.377-.377z"/></symbol><symbol id="close" viewBox="0 0 32 32"><path d="M30.355 32a1.646 1.646 0 0 0 1.163-2.811L2.811.482A1.646 1.646 0 1 0 .483 2.811L29.19 31.517a1.65 1.65 0 0 0 1.165.483z"/><path d="M1.645 32c.422 0 .843-.16 1.163-.483L31.517 2.811A1.647 1.647 0 0 0 29.188.482L.481 29.189A1.646 1.646 0 0 0 1.644 32z"/></symbol><symbol id="facebook" viewBox="0 0 32 32"><path d="M22.512.007 18.895 0c-4.064 0-6.69 3.091-6.69 7.875v3.631H8.568c-.314 0-.569.292-.569.653v5.261c0 .361.255.652.569.652h3.637v13.275c0 .36.254.652.569.652h4.745c.314 0 .569-.292.569-.652V18.072h4.252c.314 0 .569-.292.569-.652l.002-5.261c0-.173-.06-.339-.167-.461s-.252-.191-.402-.191h-4.254V8.429c0-1.479.307-2.23 1.987-2.23l2.437-.001c.314 0 .568-.292.568-.652V.661c0-.36-.254-.652-.568-.652z"/></symbol><symbol id="hat" viewBox="0 0 31 32"><path d="M22.224 8.572c-.116 0-.228-.052-.31-.144s-.129-.218-.129-.349c-.034-1.889-.726-3.688-1.927-5.011s-2.816-2.063-4.497-2.063c-1.682 0-3.296.741-4.497 2.063S8.971 6.19 8.937 8.079c0 .131-.046.256-.129.349s-.194.144-.31.144c-.116 0-.228-.052-.31-.144s-.129-.218-.129-.349c.03-2.154.812-4.209 2.178-5.72S13.444 0 15.361 0c1.917 0 3.758.847 5.124 2.359s2.148 3.566 2.178 5.72c0 .131-.046.256-.129.349s-.194.144-.31.144z"/><path d="M23.505 19.732c-.116.001-.228-.05-.311-.142s-.13-.217-.13-.348c-.001-.131.045-.256.127-.35s.193-.146.309-.147c1.671-.011 3.272-.759 4.458-2.082s1.863-3.117 1.884-4.995c-.017-1.896-.702-3.708-1.905-5.037s-2.827-2.068-4.515-2.054a5.847 5.847 0 0 0-1.912.319c-.111.036-.23.022-.331-.04s-.177-.166-.211-.289-.023-.258.03-.373a.454.454 0 0 1 .254-.241 6.653 6.653 0 0 1 2.169-.362c1.92-.014 3.767.829 5.135 2.343s2.146 3.577 2.163 5.734c-.022 2.137-.79 4.179-2.139 5.687s-3.169 2.361-5.071 2.376h-.005zM7.215 19.732H7.21c-1.902-.015-3.723-.868-5.071-2.376S.023 13.806 0 11.669c.017-2.158.795-4.22 2.163-5.734s3.215-2.357 5.135-2.343a6.653 6.653 0 0 1 2.169.362c.056.018.108.049.153.09s.083.092.11.149a.542.542 0 0 1-.048.55.457.457 0 0 1-.134.122.401.401 0 0 1-.338.032 5.874 5.874 0 0 0-1.912-.319c-1.688-.014-3.311.725-4.515 2.054S.894 9.773.878 11.669c.022 1.878.698 3.671 1.884 4.995s2.787 2.071 4.458 2.082c.058 0 .115.014.168.039s.101.062.142.108.073.101.094.161a.574.574 0 0 1-.002.378.483.483 0 0 1-.239.265.394.394 0 0 1-.168.036z"/><path d="M23.505 32H7.215c-.116 0-.228-.052-.31-.145s-.129-.218-.129-.349V19.239c0-.131.046-.256.129-.349s.194-.144.31-.144.228.052.31.144a.529.529 0 0 1 .129.349v11.774h15.413V19.239c0-.131.046-.256.128-.349s.194-.144.31-.144c.116 0 .228.052.31.144s.128.218.128.349v12.267c0 .131-.046.256-.128.349s-.194.145-.31.145z"/><path d="M26.56 27.222H10.27c-.116 0-.228-.052-.31-.145s-.129-.218-.129-.349c0-.131.046-.256.129-.349s.194-.145.31-.145h16.29c.116 0 .228.052.31.145s.129.218.129.349c0 .131-.046.256-.129.349s-.194.145-.31.145z"/></symbol><symbol id="instagram" viewBox="0 0 32 32"><path d="M16.316 32h-.319c-2.508.006-4.826-.058-7.08-.195-2.066-.126-3.953-.84-5.455-2.065-1.45-1.182-2.44-2.781-2.942-4.75-.438-1.715-.461-3.398-.483-5.026a343.853 343.853 0 0 1-.036-3.96c.003-1.414.02-2.798.036-3.966.022-1.628.045-3.311.483-5.026.503-1.97 1.493-3.568 2.942-4.75C4.965 1.037 6.851.323 8.918.197 11.172.06 13.49-.004 16.004.002c2.509-.005 4.826.058 7.08.195 2.066.126 3.953.84 5.455 2.065 1.45 1.182 2.44 2.781 2.943 4.75.437 1.715.461 3.398.483 5.026.016 1.168.033 2.553.036 3.96v.006c-.003 1.408-.02 2.792-.036 3.96-.022 1.628-.045 3.311-.483 5.026-.503 1.97-1.493 3.568-2.943 4.75-1.502 1.225-3.389 1.939-5.455 2.065-2.159.131-4.376.195-6.768.195zm-.319-2.5c2.468.006 4.733-.056 6.934-.19 1.563-.095 2.917-.602 4.027-1.507 1.026-.837 1.732-1.991 2.1-3.431.364-1.428.385-2.96.406-4.442.016-1.16.032-2.535.036-3.929-.004-1.394-.02-2.769-.036-3.929-.02-1.482-.041-3.015-.406-4.443-.367-1.44-1.074-2.594-2.1-3.431-1.11-.905-2.465-1.412-4.027-1.507a108.807 108.807 0 0 0-6.928-.19c-2.467-.006-4.733.056-6.934.19-1.563.095-2.917.602-4.027 1.507-1.026.837-1.732 1.991-2.1 3.431-.364 1.428-.385 2.96-.406 4.443a363.726 363.726 0 0 0-.036 3.932c.003 1.389.02 2.765.036 3.926.02 1.482.041 3.015.406 4.442.367 1.44 1.074 2.594 2.1 3.431 1.11.905 2.465 1.412 4.027 1.507 2.201.134 4.467.197 6.928.191zm-.06-5.688c-4.308 0-7.813-3.505-7.813-7.812s3.505-7.813 7.813-7.813S23.75 11.692 23.75 16s-3.505 7.812-7.813 7.812zm0-13.125c-2.929 0-5.313 2.383-5.313 5.313s2.383 5.312 5.313 5.312c2.93 0 5.313-2.383 5.313-5.312s-2.383-5.313-5.313-5.313zm8.688-5a1.875 1.875 0 1 0 0 3.75 1.875 1.875 0 0 0 0-3.75z"/></symbol><symbol id="location" viewBox="0 0 27 32"><path d="M13.538 0c7.465 0 13.538 5.468 13.538 12.188 0 2.659-.933 5.186-2.701 7.306L14.372 31.622c-.025.029-.063.041-.091.067-.5.482-1.221.361-1.577-.067-2.881-3.46-8.161-9.922-10.191-12.359l-.001-.003-.012-.015C.864 17.176 0 14.736 0 12.188 0 5.468 6.074 0 13.538 0zm0 18.762c4.019 0 7.304-2.957 7.304-6.575s-3.285-6.575-7.304-6.575-7.304 2.957-7.304 6.575 3.285 6.575 7.304 6.575z"/></symbol><symbol id="logo" viewBox="0 0 43 32"><path d="M25.646 15.991c0 .259-.005.517 0 .777.054 2.632-.447 5.003-1.25 7.239-.269.75-.527 1.512-.759 2.296-.191.644-.457 1.095-.871 1.359-.231.147-.445.402-.639.664-.892 1.209-1.903 2.074-2.985 2.684-.719.405-1.458.761-2.239.745-.233-.004-.466.113-.699.114s-.466-.123-.697-.107c-1.007.071-1.939-.438-2.865-.971-1.011-.582-1.903-1.501-2.742-2.597-1.184-1.545-2.028-3.492-2.649-5.72-.334-1.201-.607-2.441-.684-3.774-.013-.221-.058-.44-.097-.655-.282-1.495-.12-2.962.055-4.451.133-1.139.27-2.265.53-3.347.686-2.861 1.775-5.204 3.283-7.045 1.258-1.533 2.665-2.475 4.195-2.88 1.756-.464 3.47-.13 5.133.955a8.977 8.977 0 0 1 2.297 2.142c.638.85 1.213 1.844 1.757 2.86.493.921.842 2.018 1.155 3.137.488 1.748.806 3.558.773 5.502-.007.359-.002.716-.002 1.071zm-.674-3.542c-.049-.611-.079-1.319-.17-2.006-.259-1.977-.956-3.52-1.886-4.78-.528-.716-1.103-1.339-1.67-1.972-.192-.215-.415-.412-.639-.478-.576-.174-1.159-.337-1.743-.386-1.014-.085-1.925-.514-2.69-1.672-.563-.851-1.177-.934-1.763-.184-.664.849-1.419 1.347-2.189 1.84-.564.361-1.108.817-1.65 1.266-.453.377-.717.964-.711 1.853.004.499-.136.915-.417 1.192a7.56 7.56 0 0 0-.675.767c-.6.775-1.068 1.649-1.169 3.004-.08 1.072-.277 2.131-.725 3.014-.15.304-.242.672-.267 1.06-.041.801-.024 1.612-.012 2.418.003.216.06.447.128.637a19 19 0 0 0 .504 1.305c.439 1.003.821 2.03.91 3.303.085 1.234.448 2.239 1.063 3.006.89 1.112 1.747 2.293 2.65 3.375.485.584 1.005 1.094 1.645 1.212s1.268.404 1.842.934c.12.106.252.173.388.196.81.143 1.559-.186 2.27-.808.223-.195.453-.372.683-.542.556-.408 1.172-.677 1.656-1.245.538-.634 1.114-.915 1.732-1.093.267-.077.485-.257.659-.583.207-.387.399-.796.616-1.17.224-.386.385-.796.424-1.346.06-.843.28-1.586.558-2.301.472-1.208.74-2.542.879-3.961.037-.372.058-.687-.055-1.015-.325-.945-.192-2.019-.295-3.025-.052-.544.068-1.139.118-1.817l-.001.001zm-3.908-9.444c-.137-.249-.181-.361-.243-.431-.112-.127-.234-.231-.354-.341-1.019-.942-2.136-1.401-3.276-1.73-.229-.066-.47-.037-.704-.022-.061.004-.133.101-.172.188-.018.04.022.179.056.246.254.496.585.871.958 1.083.644.38 1.321.589 2.005.618.29.013.579.103.867.168.246.057.492.126.862.221zm-8.66 27.161c-.684-.918-1.284-1.738-1.894-2.536a83.78 83.78 0 0 0-1.538-1.936c-.058-.072-.149-.07-.276-.123.622 1.715 2.7 4.32 3.708 4.596zM7.795 8.75c.413-.517.794-1.062 1.213-1.512.588-.628.812-1.41.673-2.751-.417.56-.714 1.234-1.036 1.846-.34.646-.592 1.415-.875 2.138-.022.059.014.174.024.279zm13.914 19.567c-.385-.043-.772.068-1.014.409-.458.647-1.003.972-1.558 1.296-.291.17-.566.419-.84.656-.038.033-.045.207-.037.31.003.034.105.091.148.068.498-.278 1.012-.503 1.484-.875.578-.455 1.121-1.032 1.674-1.567.058-.053.089-.179.143-.297zM7.006 19.349c-.111.535-.089.832-.019 1.147.193.876.31 1.8.658 2.565.129.284.155.918.393.781.209-.119-.036-.622-.05-.96-.055-1.294-.469-2.337-.982-3.533zm3.733-16.113.052.128c.288-.175.578-.341.862-.528.619-.407 1.235-.822 1.85-1.245.124-.086.238-.224.343-.363.03-.04.024-.174.015-.256-.005-.037-.063-.077-.097-.08a.404.404 0 0 0-.17.046c-.836.39-1.624.966-2.378 1.666-.176.164-.32.419-.478.631zm14.678 13.896c.05-.096.09-.137.093-.182.082-1.41-.009-2.807-.127-4.2-.006-.07-.065-.17-.105-.179-.044-.01-.114.051-.141.116a1.069 1.069 0 0 0-.08.349 21.94 21.94 0 0 0 .137 3.433c.027.228.142.429.223.663zm-18.613-3.89c.326-.204.375-.574.41-.907.085-.814.298-1.597.228-2.458-.341 1.027-.643 2.067-.638 3.365zm7.893 17.867c-.731-.531-.929-.587-1.58-.438.276.172.524.444.774.449.26.007.542.53.807-.011z"/><path d="M16.205 20.551c-.5-.015-.843-.358-1.098-1.022-.237-.619-.631-.94-.992-1.321-.455-.48-.825-1.022-.93-1.996a4.207 4.207 0 0 1 .175-1.755c.137-.436.382-.841.639-1.1.279-.281.51-.546.638-1.065.146-.597.513-.633.837-.741.306-.101.617-.166.919-.293.413-.173.787-.119 1.088.408.233.409.505.702.808.951.315.258.42.559.321 1.098-.067.366-.002.615.081.907.091.318.184.642.247.978.208 1.119-.031 2.061-.671 2.56-.397.309-.7.72-.799 1.444-.04.292-.15.457-.307.533-.316.152-.637.277-.957.413zm2.099-4.692c.01-1.972-.9-3.548-2.084-3.551-1.062 0-2.131 1.18-2.173 3.441-.033 1.81.885 3.496 2.083 3.502 1.458.012 2.146-1.65 2.174-3.393zm-4.269 1.885c0-.253.015-.382-.002-.499-.157-1.071-.259-2.132.097-3.163.026-.074-.033-.227-.053-.343-.07.037-.154.045-.207.116-.588.793-.851 2.696.166 3.889zm2.186-5.93c.246.148.387.253.534.318.542.236 1.005.659 1.327 1.44.064.154.146.382.267.207.065-.094.086-.379.049-.522-.05-.19-.164-.427-.274-.464-.298-.102-.461-.457-.655-.765-.327-.515-.691-.676-1.247-.214zm-.034 7.761-.007-.074c-.156 0-.314-.022-.468.009-.079.016-.151.126-.226.194.068.099.128.255.206.287.42.174.844.211 1.259-.055a.496.496 0 0 0 .194-.199.735.735 0 0 0 .044-.328c-.003-.04-.101-.1-.15-.087-.285.073-.568.166-.851.252l-.001.001zm2.15-2.022c.291-.089.421-.358.438-.773.013-.349.009-.699-.009-1.048-.005-.092-.083-.174-.127-.261-.065.101-.196.236-.184.296.118.605-.129 1.146-.117 1.783v.001zM21 20.283c-.017.014-.084.107-.157.119a.206.206 0 0 1-.205-.1 18.039 18.039 0 0 1-.593-1.189c-.049-.108-.068-.398-.041-.423.091-.082.269-.168.308-.097.234.424.44.89.652 1.347.021.046.014.124.036.343zM11.087 23.602c.108.014.322.025.53.084.052.015.121.181.121.281s-.06.271-.112.293c-.405.165-.809.206-1.167-.239-.02-.031-.036-.069-.046-.112s-.014-.088-.011-.133c.008-.066.071-.159.113-.164.156-.021.312-.01.572-.01zM23.786 9.606l.153.138c-.043.128-.07.333-.133.37a4.565 4.565 0 0 1-.896.419c-.088.028-.215-.113-.296-.23-.093-.135-.038-.428.08-.457.345-.087.693-.154 1.092-.24zM13.47 26.452c.162.124.298.159.364.292.181.369.347.759.497 1.165.073.193.006.403-.116.458-.067.031-.189-.059-.239-.159a14.339 14.339 0 0 1-.549-1.228c-.039-.102.021-.305.043-.528zM19.831 11.051c.01-.113 0-.242.032-.292.044-.065.137-.119.182-.084.061.048.101.18.143.284.117.289.234.579.346.876.05.133.117.274.121.417a.756.756 0 0 1-.105.394c-.034.051-.173.018-.207-.053-.224-.468-.493-.905-.513-1.542zM20.528 6.082c-.049.478-.068.829-.124 1.166a1.108 1.108 0 0 1-.194.461c-.064.085-.176.073-.267.104-.007-.139-.034-.284-.018-.415.047-.407.111-.809.167-1.212.004-.031.003-.065.009-.096.045-.244.141-.429.296-.328.078.051.114.274.132.321zM16.344 9.188c.136.028.313.043.481.11.058.023.142.193.133.266-.017.131-.084.303-.154.342a.37.37 0 0 1-.342.003c-.194-.101-.375-.135-.569-.002-.127.088-.247-.004-.281-.212-.045-.279.082-.414.226-.453.153-.042.311-.035.505-.053zM19.371 22.909c-.055.395-.097.742-.157 1.081-.012.067-.097.156-.133.141-.065-.026-.155-.109-.168-.196a2.154 2.154 0 0 1-.01-.573c.046-.347.091-.677.005-1.031-.041-.17-.029-.441.128-.44.085 0 .207.172.245.314.062.227.066.495.09.705zM16.983 22.808c-.032.093-.047.202-.088.249-.256.289-.512.579-.78.832-.069.064-.189.025-.277-.018-.128-.062-.155-.34-.049-.452.294-.309.59-.616.893-.901.049-.046.146.004.208.055.042.035.061.148.093.235zM13.728 4.242c.041.04.12.075.13.138.101.613.199 1.229.28 1.85.022.172-.117.268-.21.165-.293-.324-.476-1.524-.305-2.026.018-.05.061-.075.105-.127zM17.353 5.984c-.088-.097-.184-.146-.197-.23a.558.558 0 0 1 .081-.318c.215-.316.44-.613.675-.89.079-.091.243-.156.303-.084.143.165.068.398-.032.568-.134.23-.267.472-.421.657-.118.14-.27.2-.41.297zM11.774 9.224l-.214.333c-.061-.109-.152-.199-.178-.329a36.504 36.504 0 0 1-.271-1.543c-.011-.071.024-.217.061-.242.059-.04.157-.056.202 0 .089.108.191.252.22.414.076.422.117.863.18 1.366zM9.426 17.737c-.197.592-.346 1.198-.713 1.521-.062.054-.198-.015-.264-.102-.112-.146 0-.267.055-.392.172-.388.331-.794.514-1.167a.253.253 0 0 1 .248-.13c.055.008.1.163.16.27zM11.649 17.787c.103.098.177.127.191.191.023.105.035.27 0 .343-.056.116-.153.183-.236.261-.215.203-.428.416-.651.589-.068.053-.192.037-.252-.034-.125-.146-.081-.38.019-.483.307-.316.63-.592.929-.866zM22.775 15.107c-.079.293-.19.734-.322 1.158-.02.066-.148.101-.202.062-.05-.037-.105-.203-.095-.293.053-.472.111-.945.2-1.4a.497.497 0 0 1 .244-.312c.035-.017.126.199.17.331.025.074.004.189.004.453zM9.364 11.59c.348.513.307 1.209.345 1.851.007.119-.083.29-.156.377-.038.045-.192-.027-.195-.069a60.31 60.31 0 0 1-.131-1.955c-.003-.056.079-.124.136-.203zM17.502 27.464c.058.025.116.056.172.092.209.159.42.314.624.489.097.083.194.186.264.318.08.153-.011.447-.124.407-.38-.135-.75-.322-1.034-.788-.042-.069-.041-.241-.027-.356.008-.065.081-.109.126-.164zM12.883 11.778c.02.103.089.263.065.363-.127.531-.275 1.05-.425 1.566-.018.063-.097.119-.144.109-.041-.008-.097-.102-.108-.174-.08-.574.171-1.602.451-1.861.029-.027.075-.004.161-.004zM23.735 20.497c-.044-.045-.135-.101-.182-.208-.019-.043.042-.237.095-.299.233-.279.472-.545.72-.783.067-.064.206-.069.256.003.045.067.052.318.011.411-.208.476-.471.839-.9.876zM22.293 24.596c-.18-.031-.258-.034-.333-.061-.032-.012-.079-.073-.08-.113a.655.655 0 0 1 .041-.257.324.324 0 0 1 .146-.149c.278-.137.555-.274.837-.385.061-.024.19.042.198.099.018.136-.004.3-.036.438-.017.072-.086.133-.139.159-.241.109-.483.206-.634.269zM13.934 21.307c-.02.139-.052.447-.115.737-.016.072-.137.141-.193.115s-.121-.177-.12-.271c.006-.537.022-1.075.055-1.609.007-.117.097-.219.149-.328.062.108.163.203.179.327.035.277.028.568.044 1.03zM26.944 4.507c0-1.137.168-2 .503-2.587.339-.594.774-.891 1.303-.891s.951.256 1.263.769c.316.512.475 1.331.475 2.456s-.168 1.975-.503 2.55c-.335.575-.783.862-1.343.862-.484 0-.88-.228-1.189-.684-.16-.237-.286-.566-.377-.984a7.429 7.429 0 0 1-.131-1.49zm1.789-3.384c-.385 0-.701.281-.949.844-.244.562-.366 1.387-.366 2.475s.116 1.881.349 2.381c.232.5.541.75.926.75.389 0 .705-.281.949-.844.248-.569.371-1.391.371-2.465 0-1.081-.118-1.875-.354-2.381-.232-.506-.541-.759-.926-.759zM31.476 7.628h-.474V1.066h.474v3.018h1.858V1.066h.475v6.562h-.475v-3.45h-1.858v3.45zM36.247 7.628h-.074l.497-6.562h.189l1.2 6.065 1.195-6.065h.189l.497 6.562h-.475l-.394-5.249-1.034 5.249h-.36l-1.046-5.184-.383 5.184zM43.105 1.066a.876.876 0 0 1 .109.459c0 .156-.021.316-.063.478l-1.023 3.403v2.222h-.474V5.613l-1.143-4.546h.486l1.092 4.228.994-3.29c.042-.156.063-.319.063-.487s-.028-.3-.086-.394l.046-.056zM.806 9.352c.295-.022.584-.033.866-.033.289 0 .591.05.906.149.322.099.638.286.947.562.316.264.581.611.796 1.041.222.418.4.975.534 1.668s.201 1.536.201 2.527c0 .991-.101 1.883-.302 2.676-.195.782-.463 1.382-.806 1.801-.665.815-1.467 1.222-2.407 1.222a8.61 8.61 0 0 1-1.037-.066H0V9.352h.806zm.03 11.415c.141.022.319.033.534.033s.376-.006.483-.017a1.74 1.74 0 0 0 .443-.132c.188-.088.363-.204.524-.347s.329-.352.504-.628c.181-.286.336-.622.463-1.008.289-.903.433-2.081.433-3.535 0-1.035-.077-1.927-.232-2.676-.154-.76-.332-1.322-.534-1.685a2.544 2.544 0 0 0-.715-.859c-.282-.22-.507-.347-.675-.38s-.363-.05-.584-.05a4.12 4.12 0 0 0-.645.05v11.233zM27.107 20.899h-.131V9.336h.342l4.19 10.688V9.336h.131v11.563h-.735l-3.797-9.581v9.581zM37.842 9.336h.131v6.608c0 1.729-.208 3.001-.624 3.816-.416.804-.96 1.206-1.632 1.206-.423 0-.782-.061-1.078-.182-.296-.132-.574-.369-.836-.71-.537-.683-.806-2.059-.806-4.13V9.336h.836v6.591c0 2.004.185 3.342.554 4.014.188.33.383.556.584.677.208.121.456.182.745.182.645 0 1.158-.385 1.541-1.156.389-.782.584-2.021.584-3.717V9.336zM41.409 20.899h-.836V9.501h-1.742v-.165h4.331v.165h-1.753v11.398z"/></symbol><symbol id="members" viewBox="0 0 31 32"><path d="M11.412 0C8.25 0 5.675 3.077 5.675 6.856s2.575 6.856 5.737 6.856 5.736-3.077 5.736-6.856S14.573 0 11.412 0zm0 12.562c-2.639 0-4.78-2.566-4.78-5.713s2.147-5.713 4.78-5.713c2.64 0 4.78 2.566 4.78 5.713s-2.147 5.713-4.78 5.713zM23.161 2.846c-2.376 0-4.305 2.306-4.305 5.145s1.93 5.145 4.305 5.145c2.376 0 4.305-2.306 4.305-5.145s-1.93-5.145-4.305-5.145zm0 9.155c-1.848 0-3.349-1.795-3.349-4.003s1.502-4.003 3.349-4.003c1.848 0 3.349 1.795 3.349 4.003s-1.502 4.003-3.349 4.003z"/><path d="M30.862 20.679c-.434-3.126-2.059-5.762-4.827-7.143 0 0-1.226 1.108-2.874 1.072-1.801-.042-2.874-1.072-2.874-1.072s-1.337.596-2.416 1.837c-.997-1.058-2.681-1.921-2.681-1.921s-1.543 1.402-3.783 1.381c-2.352-.021-3.772-1.381-3.772-1.381s-5.085 2.089-6.159 9.176c0 0-1.15 3.757 1.513 9.372h16.852s1.197-2.488 1.408-4.003h8.382c2.059-3.729 1.232-7.318 1.232-7.318zM19.248 30.857H3.581c-2.047-4.648-1.161-8.04-1.161-8.04.499-3.554 2.411-6.554 5.144-8.075 2.346 1.647 5.355 1.647 7.702 0 2.733 1.521 4.646 4.521 5.144 8.075-.006 0 .845 4.178-1.161 8.04zm9.825-4.002h-7.631c.293-2.019-.094-4.227-.094-4.227-.346-2.495-1.332-4.746-2.774-6.484a6.944 6.944 0 0 1 1.636-1.318 5.156 5.156 0 0 0 5.895 0c2.024 1.157 3.443 3.393 3.813 6.042 0 0 .698 2.832-.845 5.986z"/></symbol><symbol id="speakers" viewBox="0 0 164 32"><path d="M64.832.009H0s3.289 16.712 11.665 16.499c3.968-.098 8.706-2.868 13.305-1.27C30.71 17.245 35.77 32 43.686 32c9.2 0 14.342-21.966 25.67-14.533 6.783 4.449 9.88-8.498 18.043-8.498 6.714 0 9.131 13.329 17.912 13.329 8.96 0 9.042-10.052 17.123-10.052 8.314 0 7.797 19.755 14.34 19.755 6.055 0 5.955-19.586 13.452-19.586 10.745 0 13.745-12.414 13.745-12.414L64.832.01z"/></symbol><symbol id="star1" viewBox="0 0 34 32"><path d="M15.24 1.561c.504-1.552 2.699-1.552 3.204 0l2.558 7.872a1.684 1.684 0 0 0 1.602 1.164h8.277c1.632 0 2.31 2.088.99 3.047l-6.696 4.865a1.685 1.685 0 0 0-.612 1.883l2.558 7.872c.504 1.552-1.272 2.842-2.592 1.883l-6.696-4.865a1.684 1.684 0 0 0-1.98 0l-6.696 4.865c-1.32.959-3.096-.331-2.592-1.883l2.558-7.872a1.685 1.685 0 0 0-.612-1.883l-6.696-4.865c-1.32-.959-.642-3.047.99-3.047h8.277c.73 0 1.376-.47 1.602-1.164l2.558-7.872z"/></symbol><symbol id="star2svg" viewBox="0 0 34 32"><path stroke-width="1.684" d="M16.041 1.822c.252-.776 1.35-.776 1.602 0l2.558 7.872a2.526 2.526 0 0 0 2.403 1.746h8.277c.816 0 1.155 1.044.495 1.523l-6.696 4.865a2.528 2.528 0 0 0-.918 2.825l2.558 7.872c.252.776-.636 1.421-1.296.941l-6.696-4.865a2.528 2.528 0 0 0-2.97 0l-6.696 4.865c-.66.48-1.548-.166-1.296-.941l2.558-7.872a2.527 2.527 0 0 0-.918-2.825L2.31 12.963c-.66-.479-.321-1.523.495-1.523h8.277a2.528 2.528 0 0 0 2.403-1.746l2.558-7.872z"/></symbol><symbol id="tel" viewBox="0 0 32 32"><path d="M29.43 21.004c-1.959 0-3.882-.306-5.705-.909-.893-.305-1.991-.025-2.536.535l-3.598 2.716c-4.172-2.227-6.743-4.797-8.939-8.938l2.636-3.504a2.585 2.585 0 0 0 .636-2.621 18.192 18.192 0 0 1-.912-5.715A2.57 2.57 0 0 0 8.445 0H2.569A2.57 2.57 0 0 0 .001 2.568C.001 18.797 13.203 32 29.431 32a2.57 2.57 0 0 0 2.568-2.568v-5.86a2.57 2.57 0 0 0-2.568-2.568z"/></symbol><symbol id="twitter" viewBox="0 0 32 32"><path d="M32 5.441c-1.19.583-2.458.97-3.78 1.158 1.36-.908 2.398-2.334 2.886-4.053a12.307 12.307 0 0 1-4.16 1.775C25.742 2.888 24.026 2 22.154 2c-3.632 0-6.556 3.295-6.556 7.335 0 .581.044 1.14.152 1.672-5.454-.297-10.28-3.219-13.522-7.671a8.059 8.059 0 0 0-.898 3.707c0 2.54 1.17 4.791 2.914 6.095-1.054-.022-2.088-.364-2.964-.903v.08c0 3.564 2.274 6.524 5.256 7.206a5.905 5.905 0 0 1-1.72.241c-.42 0-.844-.027-1.242-.125.85 2.904 3.262 5.039 6.13 5.109-2.232 1.952-5.066 3.128-8.134 3.128-.538 0-1.054-.027-1.57-.101 2.906 2.095 6.35 3.291 10.064 3.291 12.072 0 18.672-11.178 18.672-20.868 0-.324-.01-.637-.024-.948C30.014 8.215 31.108 6.925 32 5.441z"/></symbol><symbol id="menu-burger" viewBox="0 0 48 32"><path d="M0 5.333V0h48v5.333H0zm0 13.334h48v-5.333H0v5.333zM0 32h48v-5.333H0V32z"/></symbol></defs></svg>