<svg width="135" height="25" viewBox="0 0 135 25" fill="none" xmlns="http://www.w3.org/2000/svg">
<path d="M11.1323 3.65606C11.4316 2.73475 12.735 2.73474 13.0344 3.65606L14.5249 8.24344C14.6588 8.65547 15.0428 8.93443 15.476 8.93443H20.2994C21.2682 8.93443 21.6709 10.174 20.8872 10.7434L16.985 13.5786C16.6345 13.8333 16.4878 14.2846 16.6217 14.6966L18.1122 19.284C18.4116 20.2053 17.3571 20.9715 16.5734 20.4021L12.6711 17.5669C12.3206 17.3123 11.846 17.3123 11.4956 17.5669L7.59329 20.4021C6.80957 20.9715 5.75509 20.2053 6.05444 19.284L7.54498 14.6966C7.67885 14.2846 7.53219 13.8333 7.1817 13.5786L3.27944 10.7434C2.49573 10.174 2.8985 8.93443 3.86722 8.93443H8.69069C9.12392 8.93443 9.50787 8.65547 9.64175 8.24344L11.1323 3.65606Z" fill="#AB816C"/>
<path d="M122.441 3.81057C122.591 3.34991 123.243 3.34991 123.392 3.81056L124.883 8.39795C125.084 9.01599 125.659 9.43443 126.309 9.43443H131.133C131.617 9.43443 131.819 10.0542 131.427 10.3389L127.524 13.1741C126.999 13.5561 126.779 14.2331 126.979 14.8511L128.47 19.4385C128.62 19.8992 128.092 20.2823 127.701 19.9976L123.798 17.1624C123.273 16.7804 122.561 16.7804 122.035 17.1624L118.133 19.9976C117.741 20.2823 117.214 19.8992 117.363 19.4385L118.854 14.8511C119.055 14.2331 118.835 13.5561 118.309 13.1741L114.407 10.3389C114.015 10.0542 114.216 9.43443 114.701 9.43443H119.524C120.174 9.43443 120.75 9.01599 120.951 8.39795L122.441 3.81057Z" stroke="#AB816C"/>
<path d="M94.2573 3.65606C94.5566 2.73475 95.86 2.73474 96.1594 3.65606L97.6499 8.24344C97.7838 8.65547 98.1678 8.93443 98.601 8.93443H103.424C104.393 8.93443 104.796 10.174 104.012 10.7434L100.11 13.5786C99.7595 13.8333 99.6128 14.2846 99.7467 14.6966L101.237 19.284C101.537 20.2053 100.482 20.9715 99.6984 20.4021L95.7961 17.5669C95.4456 17.3123 94.971 17.3123 94.6206 17.5669L90.7183 20.4021C89.9346 20.9715 88.8801 20.2053 89.1794 19.284L90.67 14.6966C90.8038 14.2846 90.6572 13.8333 90.3067 13.5786L86.4044 10.7434C85.6207 10.174 86.0235 8.93443 86.9922 8.93443H91.8157C92.2489 8.93443 92.6329 8.65547 92.7667 8.24344L94.2573 3.65606Z" fill="#AB816C"/>
<path d="M66.5489 3.65606C66.8483 2.73475 68.1517 2.73474 68.4511 3.65606L69.9416 8.24344C70.0755 8.65547 70.4594 8.93443 70.8926 8.93443H75.7161C76.6848 8.93443 77.0876 10.174 76.3039 10.7434L72.4016 13.5786C72.0511 13.8333 71.9045 14.2846 72.0384 14.6966L73.5289 19.284C73.8282 20.2053 72.7738 20.9715 71.9901 20.4021L68.0878 17.5669C67.7373 17.3123 67.2627 17.3123 66.9122 17.5669L63.01 20.4021C62.2262 20.9715 61.1718 20.2053 61.4711 19.284L62.9616 14.6966C63.0955 14.2846 62.9489 13.8333 62.5984 13.5786L58.6961 10.7434C57.9124 10.174 58.3152 8.93443 59.2839 8.93443H64.1074C64.5406 8.93443 64.9245 8.65547 65.0584 8.24344L66.5489 3.65606Z" fill="#AB816C"/>
<path d="M38.8406 3.65606C39.14 2.73475 40.4434 2.73474 40.7427 3.65606L42.2333 8.24344C42.3671 8.65547 42.7511 8.93443 43.1843 8.93443H48.0078C48.9765 8.93443 49.3793 10.174 48.5956 10.7434L44.6933 13.5786C44.3428 13.8333 44.1961 14.2846 44.33 14.6966L45.8206 19.284C46.1199 20.2053 45.0654 20.9715 44.2817 20.4021L40.3794 17.5669C40.029 17.3123 39.5544 17.3123 39.2039 17.5669L35.3016 20.4021C34.5179 20.9715 33.4634 20.2053 33.7628 19.284L35.2533 14.6966C35.3872 14.2846 35.2405 13.8333 34.89 13.5786L30.9878 10.7434C30.2041 10.174 30.6068 8.93443 31.5756 8.93443H36.399C36.8322 8.93443 37.2162 8.65547 37.3501 8.24344L38.8406 3.65606Z" fill="#AB816C"/>
</svg>
