<svg width="158" height="117" fill="none" xmlns="http://www.w3.org/2000/svg"><path d="M93.768 58.467c0 .946-.018 1.892 0 2.839.197 9.623-1.633 18.293-4.57 26.468a154.923 154.923 0 0 0-2.775 8.394c-.7 2.354-1.673 4.005-3.185 4.969-.845.537-1.629 1.469-2.337 2.428-3.26 4.419-6.957 7.584-10.913 9.813-2.627 1.48-5.332 2.783-8.187 2.724-.85-.016-1.703.414-2.556.418-.853.004-1.704-.45-2.549-.39-3.68.259-7.09-1.601-10.475-3.552-3.695-2.128-6.957-5.489-10.026-9.495-4.33-5.65-7.417-12.768-9.686-20.915-1.222-4.392-2.218-8.925-2.499-13.799-.047-.809-.21-1.609-.355-2.393-1.03-5.467-.437-10.828.2-16.275.487-4.166.988-8.282 1.937-12.237 2.507-10.461 6.49-19.028 12.004-25.756 4.598-5.604 9.744-9.049 15.34-10.529 6.42-1.698 12.687-.476 18.769 3.493 3.034 1.986 5.897 4.502 8.398 7.833 2.332 3.107 4.436 6.742 6.423 10.457 1.802 3.367 3.08 7.378 4.222 11.47 1.783 6.392 2.946 13.009 2.828 20.118-.026 1.314-.007 2.616-.008 3.917Zm-2.465-12.951c-.178-2.234-.288-4.823-.621-7.334-.948-7.228-3.497-12.87-6.894-17.477-1.93-2.62-4.032-4.895-6.105-7.21-.702-.785-1.517-1.505-2.337-1.747-2.107-.637-4.238-1.232-6.374-1.411-3.707-.31-7.037-1.88-9.835-6.112-2.06-3.113-4.303-3.414-6.444-.674-2.427 3.103-5.19 4.925-8.004 6.727-2.063 1.322-4.05 2.987-6.034 4.63-1.657 1.377-2.623 3.524-2.6 6.775.014 1.823-.495 3.347-1.524 4.357a27.538 27.538 0 0 0-2.467 2.804c-2.195 2.834-3.904 6.027-4.273 10.982-.292 3.919-1.015 7.792-2.65 11.02-.547 1.11-.886 2.457-.977 3.877-.15 2.929-.088 5.893-.044 8.84.012.789.22 1.634.467 2.328a67.98 67.98 0 0 0 1.843 4.77c1.606 3.666 3.003 7.422 3.326 12.078.312 4.511 1.64 8.187 3.885 10.993 3.253 4.066 6.389 8.382 9.69 12.341 1.775 2.134 3.674 3.999 6.015 4.431 2.34.433 4.635 1.479 6.733 3.414.44.389.923.632 1.42.715 2.96.524 5.701-.68 8.301-2.954a37.454 37.454 0 0 1 2.499-1.981c2.032-1.493 4.284-2.474 6.054-4.553 1.97-2.318 4.075-3.347 6.335-3.995.976-.28 1.774-.941 2.41-2.133.758-1.414 1.46-2.91 2.25-4.277.818-1.41 1.408-2.91 1.55-4.92.22-3.08 1.023-5.8 2.041-8.413 1.725-4.416 2.706-9.295 3.216-14.483.134-1.36.21-2.511-.2-3.709-1.188-3.456-.704-7.38-1.079-11.06-.19-1.988.248-4.164.431-6.644l-.004.005Zm-14.29-34.527c-.5-.91-.66-1.322-.887-1.576-.41-.466-.857-.846-1.293-1.249-3.726-3.446-7.808-5.12-11.978-6.324-.837-.243-1.718-.134-2.573-.08-.222.013-.488.368-.629.688-.065.146.081.655.204.898.928 1.815 2.138 3.183 3.501 3.961 2.355 1.391 4.83 2.154 7.331 2.26 1.06.048 2.116.377 3.171.613.9.21 1.799.46 3.153.809Zm-31.66 99.307c-2.501-3.355-4.694-6.355-6.925-9.274-1.847-2.415-3.734-4.75-5.622-7.08-.213-.261-.547-.254-1.011-.45 2.275 6.269 9.872 15.793 13.558 16.804ZM28.501 31.991c1.509-1.891 2.904-3.882 4.437-5.53 2.148-2.297 2.97-5.154 2.462-10.058-1.524 2.046-2.611 4.512-3.787 6.751-1.242 2.362-2.163 5.175-3.199 7.819-.08.214.05.636.087 1.018Zm50.872 71.544c-1.407-.158-2.825.249-3.707 1.496-1.675 2.365-3.668 3.554-5.696 4.737-1.064.62-2.068 1.531-3.07 2.4-.139.119-.165.758-.136 1.135.01.126.385.334.54.248 1.82-1.018 3.7-1.839 5.425-3.201 2.114-1.665 4.099-3.773 6.122-5.729.212-.195.324-.656.522-1.086Zm-53.759-32.79c-.404 1.956-.325 3.04-.07 4.195.705 3.201 1.134 6.58 2.405 9.377.472 1.037.568 3.357 1.438 2.856.765-.436-.13-2.273-.183-3.511-.2-4.73-1.716-8.543-3.59-12.918ZM39.263 11.83l.189.467c1.051-.64 2.113-1.245 3.153-1.93a411.856 411.856 0 0 0 6.765-4.551c.453-.314.868-.818 1.255-1.327.108-.146.089-.635.055-.937-.017-.136-.231-.283-.355-.291-.21.007-.42.064-.62.168-3.056 1.425-5.938 3.534-8.696 6.093-.645.6-1.168 1.531-1.746 2.308ZM92.929 62.64c.185-.352.33-.5.34-.665.297-5.154-.035-10.262-.466-15.357-.021-.256-.237-.622-.385-.653-.162-.035-.415.186-.514.425a3.927 3.927 0 0 0-.292 1.276c-.162 4.202.006 8.42.502 12.551.097.834.518 1.567.815 2.423ZM24.876 48.416c1.192-.746 1.37-2.098 1.499-3.318.311-2.976 1.09-5.84.833-8.986-1.247 3.755-2.352 7.559-2.331 12.304h-.001Zm28.86 65.326c-2.672-1.941-3.397-2.145-5.777-1.601 1.009.628 1.917 1.624 2.83 1.64.952.024 1.983 1.937 2.949-.039h-.001Z" fill="#2E2520"/><path d="M59.25 75.14c-1.828-.053-3.084-1.31-4.014-3.735-.866-2.263-2.306-3.437-3.626-4.831-1.663-1.757-3.017-3.739-3.4-7.3-.267-2.414.043-4.51.64-6.417.501-1.593 1.395-3.073 2.335-4.02 1.019-1.028 1.863-1.997 2.334-3.895.532-2.182 1.874-2.315 3.062-2.708 1.118-.37 2.256-.607 3.359-1.07 1.508-.63 2.877-.436 3.98 1.492.851 1.496 1.846 2.569 2.955 3.477 1.153.943 1.534 2.044 1.173 4.015-.246 1.337-.008 2.248.295 3.316.332 1.164.673 2.347.902 3.577.76 4.092-.115 7.536-2.454 9.358-1.45 1.13-2.56 2.634-2.92 5.281-.145 1.067-.55 1.672-1.124 1.948-1.157.556-2.33 1.015-3.498 1.512Zm7.673-17.155c.037-7.209-3.292-12.973-7.621-12.981-3.885 0-7.792 4.314-7.944 12.583-.121 6.618 3.237 12.782 7.615 12.805 5.331.044 7.846-6.033 7.95-12.407Zm-15.607 6.892c0-.924.054-1.397-.008-1.823-.575-3.916-.948-7.794.355-11.566.094-.27-.123-.83-.196-1.255-.255.136-.564.164-.757.424-2.152 2.899-3.112 9.859.606 14.22Zm7.99-21.682c.9.541 1.415.925 1.952 1.164 1.983.861 3.675 2.41 4.853 5.265.232.561.532 1.397.976.756.236-.342.313-1.386.177-1.909-.183-.694-.6-1.56-1.001-1.696-1.09-.374-1.686-1.67-2.396-2.799-1.194-1.881-2.528-2.472-4.56-.781Zm-.122 28.376-.027-.272c-.571 0-1.148-.08-1.71.033-.29.058-.552.462-.827.709.25.362.467.933.755 1.05 1.536.636 3.086.773 4.601-.2.26-.168.547-.386.71-.728.144-.29.19-.807.161-1.199-.011-.145-.37-.365-.547-.319-1.04.268-2.077.606-3.112.922l-.004.004Zm7.86-7.394c1.064-.324 1.54-1.31 1.602-2.824a42.793 42.793 0 0 0-.034-3.832c-.017-.336-.303-.636-.465-.953-.237.368-.718.863-.674 1.084.432 2.21-.472 4.19-.43 6.52v.005ZM76.783 74.158c-.061.051-.308.39-.575.437a.756.756 0 0 1-.749-.367 66.55 66.55 0 0 1-2.169-4.348c-.177-.394-.25-1.455-.149-1.547.333-.301.983-.615 1.128-.355.856 1.55 1.61 3.254 2.383 4.924.076.168.053.454.13 1.256ZM40.535 86.296c.396.052 1.178.092 1.94.305.19.054.444.664.444 1.028s-.22.992-.41 1.07c-1.481.603-2.956.752-4.267-.874a1.278 1.278 0 0 1-.168-.407 1.74 1.74 0 0 1-.04-.488c.028-.243.257-.582.412-.6.569-.078 1.139-.034 2.09-.034ZM86.968 35.123l.56.503c-.158.468-.256 1.218-.488 1.354a16.784 16.784 0 0 1-3.275 1.534c-.32.103-.785-.414-1.08-.84-.34-.493-.138-1.565.292-1.672 1.262-.319 2.534-.563 3.99-.88ZM49.25 96.715c.594.454 1.09.582 1.332 1.067a44.516 44.516 0 0 1 1.816 4.258c.266.707.023 1.472-.425 1.676-.246.112-.691-.217-.872-.582a52.272 52.272 0 0 1-2.007-4.49c-.142-.37.078-1.116.157-1.929ZM72.506 40.404c.037-.414 0-.887.118-1.068.16-.239.502-.437.666-.307.225.176.37.659.525 1.039.43 1.056.854 2.118 1.263 3.201.183.485.429 1.001.444 1.524.018.483-.162 1.11-.383 1.442-.124.186-.632.065-.757-.192-.82-1.71-1.803-3.311-1.876-5.64ZM75.057 22.237c-.177 1.746-.248 3.031-.455 4.263-.13.665-.377 1.252-.71 1.686-.235.311-.645.266-.976.38-.027-.508-.123-1.038-.067-1.52.173-1.487.404-2.956.612-4.432.016-.115.011-.237.032-.35.163-.89.516-1.568 1.081-1.2.285.187.418 1.003.483 1.173ZM59.759 33.593c.498.102 1.144.158 1.76.402.21.083.52.704.484.972-.064.479-.307 1.109-.564 1.252a1.347 1.347 0 0 1-1.249.01c-.71-.371-1.37-.495-2.079-.009-.465.32-.901-.016-1.025-.776-.166-1.018.3-1.512.825-1.656.559-.152 1.136-.128 1.848-.194ZM70.826 83.762c-.202 1.445-.355 2.713-.573 3.951-.042.243-.355.57-.486.515-.236-.094-.568-.4-.616-.717a7.77 7.77 0 0 1-.035-2.094c.167-1.269.33-2.474.018-3.77-.15-.622-.107-1.613.468-1.61.31 0 .755.629.894 1.148.227.831.242 1.81.33 2.577ZM62.095 83.391c-.115.34-.171.74-.323.911-.934 1.057-1.87 2.118-2.853 3.042-.252.235-.692.09-1.013-.066-.47-.228-.567-1.241-.177-1.652 1.075-1.13 2.157-2.252 3.265-3.294.177-.167.532.013.761.2.155.127.222.54.34.86ZM50.191 15.508c.152.146.438.274.476.504.37 2.242.728 4.492 1.023 6.762.082.63-.427.981-.767.604-1.073-1.184-1.741-5.572-1.116-7.407.065-.182.223-.273.384-.463ZM63.447 21.878c-.323-.354-.672-.534-.719-.84-.05-.332.117-.898.298-1.164a39.775 39.775 0 0 1 2.466-3.254c.289-.333.888-.569 1.11-.308.523.604.248 1.455-.117 2.078-.49.84-.976 1.724-1.54 2.402-.433.511-.988.73-1.498 1.086ZM43.05 33.726l-.784 1.216c-.224-.397-.556-.727-.65-1.202a132.493 132.493 0 0 1-.99-5.641c-.041-.26.089-.793.222-.884.217-.145.575-.203.74 0 .325.395.697.923.803 1.515.28 1.543.427 3.155.659 4.996ZM34.463 64.85c-.72 2.165-1.266 4.38-2.606 5.561-.225.198-.724-.055-.965-.371-.41-.534 0-.978.2-1.433.628-1.42 1.21-2.902 1.878-4.268.172-.351.61-.524.906-.476.203.03.368.595.587.988ZM42.591 65.034c.375.357.648.463.698.697.084.384.127.988 0 1.255-.206.424-.558.669-.861.954-.787.74-1.563 1.522-2.382 2.154-.249.192-.7.134-.922-.125-.457-.534-.297-1.39.07-1.767 1.124-1.154 2.305-2.164 3.397-3.168ZM83.27 55.235c-.289 1.07-.695 2.683-1.177 4.235-.075.24-.541.37-.739.227-.184-.136-.384-.743-.347-1.071.194-1.725.407-3.455.733-5.12.1-.508.548-.969.893-1.14.128-.062.463.728.621 1.212.091.272.016.69.016 1.657ZM34.237 42.377c1.274 1.874 1.122 4.42 1.263 6.77.027.436-.304 1.06-.569 1.376-.138.166-.7-.1-.714-.253-.2-2.373-.355-4.76-.478-7.15-.01-.203.29-.452.498-.743ZM63.99 100.414c.214.093.424.205.63.338.764.582 1.533 1.148 2.28 1.788.354.303.71.681.965 1.164.294.56-.042 1.636-.453 1.489-1.387-.492-2.743-1.179-3.781-2.881-.154-.252-.15-.882-.1-1.3.029-.236.297-.399.46-.598ZM47.103 43.062c.073.377.325.962.237 1.329-.466 1.943-1.006 3.84-1.555 5.725-.067.231-.355.436-.525.398-.15-.03-.355-.374-.394-.634-.291-2.1.627-5.859 1.65-6.805.105-.097.274-.013.587-.013ZM86.782 74.944c-.16-.166-.492-.368-.665-.76-.07-.155.154-.865.347-1.093.853-1.018 1.725-1.992 2.633-2.862.245-.234.754-.252.934.012.166.244.191 1.164.041 1.502-.761 1.74-1.721 3.067-3.29 3.201ZM81.51 89.93c-.658-.113-.945-.124-1.219-.225-.116-.042-.29-.267-.291-.414-.012-.331.04-.66.15-.939.141-.263.326-.453.532-.546 1.015-.5 2.031-1.002 3.061-1.408.224-.088.695.154.724.364.068.497-.013 1.098-.132 1.6-.063.265-.314.486-.506.582-.882.398-1.768.753-2.319.986ZM50.947 77.902c-.073.508-.191 1.633-.42 2.694-.056.263-.5.516-.704.42-.204-.096-.443-.647-.437-.992.021-1.963.08-3.929.202-5.883.026-.427.355-.802.545-1.2.227.394.595.741.653 1.194.128 1.013.101 2.078.16 3.767ZM98.513 16.477c0-4.158.613-7.311 1.839-9.46 1.24-2.17 2.829-3.255 4.765-3.255 1.937 0 3.476.937 4.618 2.81 1.157 1.874 1.735 4.867 1.735 8.98s-.613 7.22-1.839 9.323c-1.226 2.102-2.863 3.153-4.911 3.153-1.769 0-3.218-.834-4.347-2.502-.585-.869-1.045-2.068-1.379-3.6-.32-1.553-.48-3.37-.48-5.449Zm6.541-12.373c-1.407 0-2.563 1.029-3.469 3.085-.891 2.057-1.337 5.073-1.337 9.049 0 3.975.425 6.877 1.275 8.705.849 1.828 1.978 2.742 3.385 2.742 1.421 0 2.577-1.028 3.469-3.085.906-2.079 1.358-5.084 1.358-9.014 0-3.953-.431-6.855-1.295-8.705-.85-1.851-1.979-2.777-3.386-2.777ZM115.084 27.89h-1.734V3.9h1.734v11.036h6.792V3.9h1.735V27.89h-1.735V15.278h-6.792V27.89ZM132.527 27.89h-.272L134.073 3.9h.69l4.388 22.175L143.519 3.9h.69l1.818 23.992h-1.735L142.85 8.697l-3.782 19.194h-1.317l-3.824-18.954-1.4 18.954ZM157.603 3.899c.265.434.397.994.397 1.68 0 .57-.077 1.153-.23 1.747l-3.741 12.442v8.123h-1.734v-7.37L148.115 3.9h1.777l3.991 15.457 3.636-12.03c.154-.571.23-1.165.23-1.782s-.104-1.097-.313-1.44l.167-.205ZM2.946 34.194c1.08-.08 2.136-.12 3.167-.12 1.056 0 2.16.18 3.314.543 1.179.363 2.333 1.047 3.462 2.054 1.154.966 2.124 2.235 2.91 3.805.81 1.53 1.46 3.563 1.951 6.1.491 2.537.737 5.617.737 9.24 0 3.625-.369 6.886-1.105 9.785-.712 2.859-1.694 5.053-2.946 6.584-2.43 2.98-5.365 4.469-8.802 4.469-1.203 0-2.467-.08-3.793-.242H0V34.194h2.946Zm.11 41.735c.516.08 1.167.12 1.952.12.786 0 1.375-.02 1.768-.06.393-.04.933-.2 1.62-.483a7.961 7.961 0 0 0 1.915-1.268c.59-.523 1.203-1.288 1.842-2.295.662-1.047 1.227-2.275 1.694-3.684 1.055-3.302 1.583-7.61 1.583-12.925 0-3.785-.282-7.047-.847-9.785-.565-2.778-1.215-4.832-1.952-6.16-.712-1.33-1.583-2.376-2.614-3.141-1.031-.805-1.854-1.268-2.468-1.39-.613-.12-1.325-.18-2.136-.18-.81 0-1.595.06-2.356.18V75.93ZM99.111 76.412h-.479V34.134h1.252l15.32 39.077V34.134h.479v42.278h-2.688l-13.884-35.03v35.03ZM138.359 34.134h.479v24.159c0 6.322-.761 10.972-2.283 13.952-1.522 2.94-3.511 4.409-5.966 4.409-1.547 0-2.86-.222-3.94-.664-1.081-.484-2.099-1.35-3.057-2.598-1.964-2.496-2.946-7.53-2.946-15.099V34.134h3.057v24.099c0 7.328.675 12.22 2.025 14.676.687 1.208 1.399 2.034 2.136 2.476.761.443 1.669.665 2.725.665 2.357 0 4.235-1.41 5.634-4.228 1.424-2.859 2.136-7.389 2.136-13.59V34.135ZM151.401 76.412h-3.057V34.738h-6.371v-.604h15.836v.604h-6.408v41.674Z" fill="#2E2520"/></svg>