<svg width="96" height="50" viewBox="0 0 96 50" fill="none" xmlns="http://www.w3.org/2000/svg">
<path d="M56.9728 24.9956C56.9728 25.403 56.962 25.8104 56.9728 26.2184C57.0925 30.3632 55.9808 34.0975 54.1959 37.6187C53.5975 38.7996 53.0255 40.0005 52.5101 41.234C52.0848 42.2481 51.4939 42.9588 50.5748 43.3744C50.0615 43.6057 49.5855 44.0068 49.1553 44.4198C47.1747 46.3233 44.9277 47.6866 42.5244 48.6468C40.9281 49.2842 39.2844 49.8452 37.5502 49.8201C37.0332 49.8132 36.5151 49.9981 35.997 50C35.4789 50.0019 34.9614 49.8063 34.4482 49.832C32.212 49.9436 30.1402 49.1426 28.0836 48.3021C25.8388 47.3857 23.8565 45.9379 21.9918 44.2124C19.3604 41.7786 17.4855 38.7131 16.107 35.2038C15.3641 33.3122 14.7592 31.3598 14.5883 29.2608C14.5598 28.9123 14.4606 28.5675 14.3727 28.2297C13.7474 25.8749 14.1069 23.5659 14.494 21.2199C14.79 19.4255 15.0946 17.653 15.6709 15.9494C17.1943 11.4435 19.6138 7.75373 22.9649 4.85554C25.7585 2.44185 28.8852 0.95828 32.2848 0.320854C36.1857 -0.410588 39.9939 0.115899 43.6889 1.8251C45.5326 2.68065 47.2722 3.76433 48.7914 5.19901C50.2087 6.53717 51.4869 8.10284 52.6945 9.70299C53.7889 11.1533 54.5657 12.8807 55.2595 14.6432C56.3431 17.3966 57.0493 20.2465 56.9776 23.3083C56.962 23.8743 56.9733 24.4352 56.9728 24.9956ZM55.4752 19.4173C55.3673 18.4552 55.3 17.3402 55.0978 16.2584C54.522 13.1452 52.9732 10.7152 50.909 8.73087C49.737 7.60268 48.4593 6.62241 47.2 5.62522C46.7736 5.28739 46.2781 4.97714 45.78 4.87309C44.4997 4.59857 43.2048 4.34222 41.9071 4.26512C39.6548 4.13162 37.6316 3.45534 35.9312 1.63269C34.6795 0.292022 33.3166 0.16228 32.0158 1.34249C30.5413 2.67877 28.8631 3.46348 27.1526 4.24005C25.8992 4.80916 24.6921 5.52619 23.4867 6.23444C22.4797 6.82736 21.8931 7.75185 21.9071 9.15206C21.9152 9.9374 21.6058 10.5936 20.981 11.0286C20.4596 11.3936 19.9588 11.797 19.4817 12.2364C18.1486 13.4573 17.1097 14.8325 16.8854 16.9666C16.7081 18.6545 16.2693 20.323 15.2752 21.7132C14.943 22.1915 14.7371 22.7714 14.6822 23.3829C14.5905 24.6446 14.6282 25.9213 14.6552 27.1905C14.6627 27.5302 14.7894 27.8944 14.9388 28.1934C15.2821 28.8997 15.656 29.5855 16.059 30.2479C17.0348 31.8268 17.8833 33.4445 18.0795 35.4501C18.2693 37.3931 19.0758 38.9763 20.4403 40.1847C22.4166 41.9359 24.3218 43.7949 26.3277 45.5004C27.4059 46.4192 28.5602 47.2228 29.9823 47.4089C31.4044 47.5951 32.7985 48.0457 34.0735 48.8793C34.3408 49.0469 34.6339 49.1515 34.9361 49.1871C36.735 49.4127 38.4003 48.8944 39.9799 47.9147C40.4753 47.6076 40.9853 47.3287 41.498 47.0617C42.7325 46.4186 44.1013 45.9962 45.1768 45.1005C46.373 44.1021 47.6523 43.6589 49.0254 43.38C49.6184 43.2591 50.1036 42.9745 50.4896 42.4612C50.9505 41.852 51.3769 41.2076 51.8573 40.6191C52.3538 40.0118 52.7123 39.3656 52.7991 38.5C52.9322 37.1731 53.4201 36.0017 54.039 34.876C55.087 32.9744 55.6827 30.8728 55.9927 28.6384C56.0741 28.0523 56.1205 27.5566 55.8709 27.0407C55.1496 25.5521 55.4439 23.8617 55.2159 22.2773C55.1005 21.4205 55.3663 20.4834 55.4779 19.4154L55.4752 19.4173ZM46.793 4.54592C46.4884 4.15418 46.3919 3.97681 46.2539 3.86712C46.0048 3.66655 45.7331 3.50297 45.4684 3.32935C43.2042 1.84516 40.7244 1.12375 38.1906 0.605406C37.6817 0.500736 37.1464 0.547744 36.6272 0.570935C36.4919 0.576576 36.3307 0.729507 36.245 0.867396C36.2056 0.930073 36.2941 1.14945 36.369 1.25412C36.9326 2.03569 37.6677 2.62524 38.4963 2.96019C39.9267 3.5593 41.4304 3.88793 42.9503 3.93356C43.594 3.95425 44.236 4.09589 44.877 4.19743C45.4237 4.28769 45.9698 4.39612 46.793 4.54592ZM27.5564 47.3193C26.0366 45.8739 24.7045 44.5822 23.3487 43.3249C22.2263 42.2844 21.0796 41.2791 19.9324 40.2756C19.8036 40.1628 19.6003 40.1659 19.3184 40.0813C20.7006 42.7815 25.3164 46.8837 27.5564 47.3193ZM17.3173 13.5921C18.2337 12.7773 19.0817 11.9199 20.0128 11.2104C21.3179 10.2207 21.8171 8.99035 21.5088 6.87813C20.5826 7.75937 19.9222 8.82112 19.2079 9.78572C18.4531 10.803 17.8936 12.0145 17.2644 13.1534C17.2159 13.2455 17.2946 13.4273 17.3173 13.5921ZM48.2264 44.4073C47.3714 44.339 46.5105 44.5145 45.9741 45.0516C44.9563 46.0701 43.7455 46.5822 42.5136 47.0918C41.8667 47.3588 41.257 47.7511 40.6478 48.1253C40.5637 48.1767 40.5481 48.4519 40.5653 48.6142C40.5713 48.6687 40.7993 48.7583 40.8931 48.7214C41.9993 48.2826 43.1422 47.9291 44.1897 47.3425C45.4744 46.6254 46.6803 45.7173 47.9095 44.8749C48.0383 44.7909 48.1062 44.5922 48.2264 44.4073ZM15.563 30.2836C15.3172 31.1266 15.3657 31.5936 15.5204 32.0906C15.949 33.4695 16.2094 34.9249 16.9819 36.1295C17.2682 36.5764 17.327 37.5755 17.8553 37.3599C18.3205 37.1719 17.776 36.3809 17.7442 35.8475C17.6224 33.8099 16.7016 32.1677 15.563 30.2836ZM23.856 4.90882L23.9708 5.11001C24.6096 4.83423 25.2544 4.5735 25.8868 4.27829C27.2611 3.63689 28.6311 2.98359 29.9969 2.31837C30.2723 2.18299 30.5246 1.96613 30.7597 1.74676C30.8254 1.68408 30.8136 1.47349 30.7931 1.34312C30.7823 1.28483 30.6524 1.22152 30.5775 1.21776C30.4493 1.22102 30.3223 1.2455 30.2001 1.29047C28.3434 1.90408 26.5924 2.81227 24.9169 3.91476C24.525 4.17299 24.2069 4.57412 23.856 4.90882ZM56.4633 26.7925C56.5755 26.6409 56.6633 26.5775 56.6693 26.5061C56.8504 24.2861 56.6482 22.0861 56.3868 19.8918C56.3738 19.7815 56.2423 19.6235 56.1528 19.6104C56.0542 19.5953 55.9005 19.6906 55.8407 19.7934C55.7423 19.9561 55.6811 20.1453 55.6628 20.3431C55.5643 22.1528 55.6668 23.9697 55.9679 25.749C56.0272 26.1081 56.2827 26.424 56.4633 26.7925ZM15.1145 20.6665C15.8391 20.3449 15.9474 19.7627 16.025 19.2374C16.2143 17.9557 16.6876 16.7222 16.5313 15.3671C15.7738 16.9842 15.1021 18.6226 15.115 20.6665H15.1145ZM32.6503 48.8035C31.026 47.9674 30.5855 47.8796 29.1397 48.114C29.7526 48.3842 30.3041 48.8135 30.8589 48.8204C31.4373 48.8304 32.0638 49.6546 32.6508 48.8035H32.6503Z" fill="#2E2520"/>
<path d="M35.9997 32.1771C34.8892 32.1539 34.1263 31.613 33.5614 30.5682C33.0352 29.5936 32.1597 29.0878 31.3581 28.4873C30.3473 27.7308 29.5251 26.8771 29.2917 25.3434C29.13 24.3036 29.3181 23.4004 29.6809 22.5794C29.9855 21.8931 30.5289 21.2556 31.0998 20.8476C31.7187 20.4051 32.2319 19.9877 32.5177 19.1704C32.8411 18.2302 33.6562 18.1732 34.3781 18.0039C35.0579 17.8447 35.749 17.7426 36.4191 17.5433C37.3356 17.2712 38.1674 17.3552 38.837 18.1857C39.3545 18.83 39.9588 19.292 40.6327 19.6831C41.3335 20.0892 41.5648 20.5637 41.3454 21.4123C41.1961 21.9883 41.3405 22.3807 41.5249 22.8407C41.7265 23.3422 41.9341 23.8517 42.0726 24.3813C42.5341 26.1438 42.0031 27.6274 40.582 28.4121C39.7011 28.8985 39.0267 29.5466 38.8073 30.6867C38.7195 31.1461 38.4731 31.4068 38.1248 31.5259C37.4218 31.7653 36.7086 31.9628 35.9997 32.1771ZM40.6618 24.7881C40.6845 21.6831 38.6618 19.2004 36.0315 19.1967C33.6713 19.1967 31.2971 21.0551 31.205 24.6164C31.1311 27.4669 33.1716 30.1219 35.8315 30.132C39.0709 30.1508 40.5987 27.5334 40.6618 24.7881ZM31.1791 27.7565C31.1791 27.3585 31.212 27.1548 31.1742 26.9712C30.8254 25.2845 30.5985 23.6142 31.3899 21.9896C31.447 21.873 31.3155 21.6323 31.2713 21.4493C31.116 21.5076 30.9284 21.5195 30.8109 21.6317C29.5036 22.8802 28.9203 25.8781 31.1791 27.7565ZM36.0342 18.4176C36.5814 18.6508 36.8935 18.8162 37.2202 18.919C38.4251 19.2901 39.4532 19.957 40.1685 21.1867C40.3098 21.4286 40.492 21.7884 40.7616 21.5126C40.905 21.3653 40.9519 20.9153 40.8694 20.6903C40.7578 20.3913 40.5044 20.0184 40.2607 19.9595C39.5987 19.7984 39.2364 19.2406 38.8052 18.7542C38.0795 17.9438 37.2693 17.6893 36.0342 18.4176ZM35.9598 30.6396L35.9436 30.5224C35.5965 30.5224 35.246 30.488 34.9043 30.5369C34.7285 30.5619 34.5689 30.7355 34.4024 30.8421C34.5538 30.9982 34.6859 31.2439 34.8606 31.2946C35.7943 31.5685 36.7356 31.6274 37.6563 31.2081C37.8138 31.136 37.989 31.042 38.0876 30.8947C38.175 30.7694 38.2035 30.5469 38.1857 30.3783C38.1787 30.3156 37.9609 30.221 37.8531 30.241C37.2208 30.3563 36.5911 30.5018 35.9625 30.6378L35.9598 30.6396ZM40.7351 27.455C41.3821 27.3153 41.671 26.8909 41.7088 26.2385C41.7367 25.6885 41.7299 25.1369 41.6883 24.5882C41.678 24.4434 41.5044 24.3143 41.4058 24.1776C41.2618 24.3362 40.9696 24.5493 40.9961 24.6446C41.2586 25.5966 40.7098 26.4491 40.7351 27.4531V27.455Z" fill="#2E2520"/>
<path d="M46.6528 31.7541C46.6156 31.776 46.4658 31.922 46.3035 31.9421C46.1558 31.9621 45.9401 31.9045 45.8485 31.7841C45.3886 31.1806 44.9423 30.5601 44.5309 29.9113C44.4231 29.7415 44.3789 29.2846 44.4404 29.2451C44.6425 29.1153 45.0377 28.98 45.1256 29.0922C45.6458 29.7597 46.1035 30.4936 46.5736 31.2131C46.6194 31.2852 46.6054 31.4087 46.6528 31.7541Z" fill="#2E2520"/>
<path d="M24.629 36.9819C24.8695 37.0045 25.3444 37.0214 25.8075 37.1136C25.9229 37.1368 26.0771 37.3994 26.0771 37.5561C26.0771 37.7128 25.9439 37.9835 25.8285 38.0167C24.9282 38.2769 24.0323 38.3408 23.2355 37.6407C23.1905 37.5919 23.1557 37.5318 23.1337 37.465C23.1117 37.3982 23.1032 37.3265 23.1088 37.2552C23.126 37.1506 23.2657 37.0045 23.3595 36.997C23.705 36.9631 24.0517 36.9819 24.629 36.9819Z" fill="#2E2520"/>
<path d="M52.8411 14.9409L53.1818 15.1578C53.0853 15.359 53.026 15.6824 52.8853 15.7407C52.2371 16.0179 51.5719 16.2387 50.8955 16.4013C50.7009 16.4458 50.4184 16.2233 50.2389 16.0396C50.0319 15.8272 50.1553 15.3659 50.4163 15.3195C51.1834 15.1822 51.9559 15.0769 52.8411 14.9409Z" fill="#2E2520"/>
<path d="M29.9246 41.4696C30.2847 41.6652 30.5861 41.7203 30.7333 41.9291C31.1363 42.5107 31.5049 43.1234 31.8368 43.763C31.9985 44.0676 31.8508 44.3973 31.5786 44.485C31.4292 44.5333 31.1586 44.3916 31.0486 44.2343C30.6092 43.6188 30.2019 42.9731 29.8292 42.3007C29.7429 42.1409 29.8766 41.82 29.9246 41.4696Z" fill="#2E2520"/>
<path d="M44.0544 17.2155C44.077 17.0375 44.0544 16.8338 44.1261 16.7554C44.2231 16.6526 44.4312 16.5674 44.5309 16.6232C44.6673 16.699 44.7557 16.9071 44.8495 17.0707C45.1105 17.5257 45.3687 17.9833 45.6172 18.4496C45.7283 18.6583 45.8776 18.8808 45.8868 19.1058C45.8975 19.3139 45.7886 19.584 45.6539 19.7269C45.5789 19.8072 45.27 19.7551 45.194 19.6442C44.6959 18.9077 44.0986 18.2183 44.0544 17.2155Z" fill="#2E2520"/>
<path d="M45.6043 9.39086C45.4965 10.143 45.4533 10.6964 45.3277 11.2267C45.249 11.5131 45.0989 11.7659 44.8964 11.9531C44.7536 12.0872 44.5045 12.0678 44.3034 12.1167C44.2873 11.8979 44.2285 11.6698 44.2625 11.4623C44.3676 10.8218 44.5083 10.1887 44.6344 9.55319C44.6441 9.50368 44.6414 9.45103 44.6538 9.40277C44.753 9.01918 44.9676 8.72711 45.311 8.88568C45.4841 8.96591 45.5649 9.31752 45.6043 9.39086Z" fill="#2E2520"/>
<path d="M36.3091 14.2822C36.6121 14.3261 37.004 14.3499 37.3782 14.4552C37.5059 14.4909 37.6946 14.7585 37.6725 14.8739C37.6337 15.0801 37.486 15.3514 37.3302 15.4129C37.0833 15.5025 36.8189 15.5041 36.5711 15.4173C36.1399 15.2574 35.7382 15.2042 35.308 15.4135C35.0256 15.5514 34.7603 15.4066 34.6848 15.0794C34.584 14.6407 34.8676 14.4282 35.1862 14.3662C35.5258 14.3004 35.8768 14.311 36.3091 14.2822Z" fill="#2E2520"/>
<path d="M43.0333 35.8907C42.9109 36.5131 42.8177 37.059 42.6856 37.5924C42.6597 37.6971 42.47 37.8381 42.3902 37.8143C42.2468 37.7736 42.0452 37.6419 42.016 37.5053C41.9515 37.2102 41.9442 36.9022 41.9945 36.6034C42.0958 36.0568 42.1956 35.5379 42.0053 34.9794C41.9147 34.7118 41.9406 34.285 42.2899 34.2862C42.478 34.2862 42.7487 34.557 42.8333 34.7807C42.9708 35.1386 42.9799 35.5598 43.0333 35.8907Z" fill="#2E2520"/>
<path d="M37.7286 35.7309C37.6585 35.8769 37.6245 36.0493 37.5324 36.1233C36.9647 36.5783 36.3959 37.0352 35.7986 37.4332C35.6461 37.5348 35.3781 37.4721 35.1835 37.405C34.8983 37.3066 34.839 36.8704 35.0757 36.6936C35.7291 36.2066 36.3862 35.7234 37.0596 35.2746C37.1674 35.2025 37.383 35.2803 37.5221 35.3605C37.6165 35.4156 37.6569 35.5936 37.7286 35.7309Z" fill="#2E2520"/>
<path d="M30.4961 6.49267C30.5882 6.55534 30.7618 6.6105 30.785 6.70953C31.0104 7.67538 31.2276 8.64437 31.4066 9.62213C31.4562 9.89353 31.1473 10.0446 30.9403 9.88225C30.2885 9.37205 29.8826 7.48234 30.2626 6.69198C30.302 6.61363 30.3979 6.57415 30.4961 6.49267Z" fill="#2E2520"/>
<path d="M38.5502 9.23605C38.3539 9.08374 38.1421 9.00602 38.1135 8.8744C38.0828 8.73149 38.1841 8.48768 38.2941 8.37298C38.7724 7.87589 39.2726 7.40811 39.7928 6.97152C39.968 6.82799 40.3319 6.72645 40.4667 6.83865C40.7847 7.09876 40.6176 7.46542 40.396 7.73367C40.0985 8.09532 39.803 8.4764 39.4602 8.76847C39.1971 8.98847 38.8596 9.08311 38.5502 9.23605Z" fill="#2E2520"/>
<path d="M26.1569 14.3392L25.6803 14.8632C25.5444 14.6921 25.3428 14.5498 25.2857 14.3455C25.0571 13.5457 24.8657 12.7315 24.684 11.9155C24.6592 11.8033 24.7379 11.5739 24.8188 11.535C24.9509 11.4724 25.1681 11.4473 25.2684 11.535C25.4663 11.7049 25.6922 11.9324 25.7568 12.1875C25.9267 12.8519 26.0161 13.5463 26.1569 14.3392Z" fill="#2E2520"/>
<path d="M20.9395 27.7452C20.5023 28.6772 20.1702 29.6318 19.3561 30.1401C19.2192 30.2254 18.9162 30.1163 18.7696 29.9803C18.5205 29.7503 18.7696 29.5591 18.8909 29.3629C19.2731 28.7512 19.6262 28.1131 20.0322 27.5246C20.1367 27.3735 20.4025 27.299 20.5831 27.3196C20.706 27.3328 20.8063 27.576 20.9395 27.7452Z" fill="#2E2520"/>
<path d="M25.8781 27.8242C26.1062 27.9777 26.2717 28.0235 26.3024 28.1244C26.3531 28.2899 26.3795 28.55 26.3024 28.6647C26.1773 28.8477 25.9633 28.953 25.7789 29.0759C25.3008 29.3949 24.8291 29.7315 24.332 30.0035C24.1805 30.0862 23.9061 30.0611 23.7713 29.9496C23.4937 29.7195 23.5913 29.351 23.8145 29.1887C24.497 28.6916 25.2145 28.2567 25.8781 27.8242Z" fill="#2E2520"/>
<path d="M50.5947 23.6035C50.419 24.0642 50.1721 24.7593 49.8793 25.4274C49.834 25.5308 49.5505 25.5873 49.4303 25.5252C49.3187 25.4669 49.1968 25.2055 49.2195 25.0639C49.337 24.3212 49.4669 23.5759 49.6648 22.8589C49.7251 22.6402 49.9979 22.4415 50.2076 22.3682C50.2853 22.3412 50.4885 22.6815 50.585 22.8896C50.64 23.0068 50.5947 23.1873 50.5947 23.6035Z" fill="#2E2520"/>
<path d="M20.8025 18.0654C21.5761 18.8726 21.4839 19.9689 21.5697 20.9811C21.5858 21.1691 21.3848 21.438 21.2241 21.574C21.14 21.6455 20.7982 21.5308 20.7901 21.465C20.6683 20.4427 20.5745 19.4148 20.4996 18.3856C20.4936 18.2979 20.6753 18.1907 20.8025 18.0654Z" fill="#2E2520"/>
<path d="M38.8801 43.0629C39.0098 43.1028 39.1374 43.1513 39.2623 43.2083C39.727 43.459 40.1944 43.7028 40.6478 43.9786C40.8634 44.109 41.0791 44.2719 41.2343 44.48C41.4128 44.7213 41.209 45.1845 40.9594 45.1212C40.1163 44.9093 39.2925 44.6135 38.6618 43.8802C38.5685 43.7718 38.5707 43.5004 38.6009 43.3205C38.6186 43.2189 38.7815 43.1487 38.8801 43.0629Z" fill="#2E2520"/>
<path d="M28.6194 18.3606C28.6642 18.5229 28.8173 18.7749 28.7634 18.9328C28.4804 19.7696 28.1526 20.5869 27.8189 21.3985C27.7779 21.4982 27.6033 21.5866 27.4997 21.5703C27.4092 21.5571 27.2841 21.4092 27.2604 21.297C27.0836 20.3926 27.641 18.7736 28.2626 18.3662C28.3267 18.3242 28.4291 18.3606 28.6194 18.3606Z" fill="#2E2520"/>
<path d="M52.7285 32.0925C52.6314 32.0211 52.4293 31.9339 52.3241 31.7653C52.2821 31.6983 52.4179 31.3924 52.5349 31.2946C53.0535 30.8559 53.5829 30.4366 54.135 30.0618C54.2838 29.9609 54.5932 29.9533 54.7026 30.0668C54.8034 30.1721 54.8185 30.5682 54.7274 30.7136C54.2649 31.4632 53.6816 32.0348 52.7285 32.0925Z" fill="#2E2520"/>
<path d="M49.5251 38.547C49.1251 38.4987 48.951 38.4937 48.7844 38.4505C48.7138 38.4323 48.6087 38.3351 48.6076 38.2718C48.6001 38.1292 48.632 37.9876 48.6987 37.8676C48.7845 37.7543 48.8969 37.6726 49.0222 37.6325C49.6389 37.4169 50.2562 37.2007 50.882 37.0258C51.0179 36.9882 51.3042 37.0923 51.3219 37.1825C51.3629 37.3969 51.3139 37.6557 51.2416 37.872C51.2034 37.986 51.0508 38.0813 50.9338 38.1227C50.3979 38.2938 49.8599 38.4467 49.5251 38.547Z" fill="#2E2520"/>
<path d="M30.9548 33.3667C30.9106 33.5855 30.8389 34.07 30.7004 34.5269C30.6659 34.6403 30.3963 34.7494 30.2723 34.708C30.1483 34.6667 30.0028 34.4291 30.0065 34.2806C30.0195 33.435 30.0556 32.5883 30.1295 31.7465C30.1451 31.5629 30.3451 31.4012 30.4605 31.2294C30.5985 31.3993 30.8222 31.5491 30.8572 31.744C30.9354 32.1803 30.9187 32.639 30.9548 33.3667Z" fill="#2E2520"/>
<path d="M59.8562 6.91C59.8562 5.11884 60.2287 3.7607 60.9736 2.8356C61.727 1.90065 62.692 1.43318 63.8686 1.43318C65.0452 1.43318 65.9806 1.83668 66.6747 2.64369C67.3773 3.4507 67.7286 4.73994 67.7286 6.51142C67.7286 8.2829 67.3561 9.62135 66.6112 10.5268C65.8663 11.4322 64.8717 11.8849 63.6273 11.8849C62.5523 11.8849 61.6719 11.5257 60.9863 10.8073C60.6308 10.4333 60.3514 9.9166 60.1483 9.25722C59.9536 8.58799 59.8562 7.80559 59.8562 6.91ZM63.8305 1.5808C62.9755 1.5808 62.273 2.02367 61.7227 2.90941C61.181 3.79515 60.9101 5.09424 60.9101 6.80667C60.9101 8.5191 61.1683 9.76898 61.6846 10.5563C62.201 11.3436 62.8867 11.7373 63.7416 11.7373C64.605 11.7373 65.3076 11.2944 65.8494 10.4087C66.3996 9.5131 66.6747 8.21893 66.6747 6.52618C66.6747 4.82359 66.4123 3.57371 65.8875 2.77655C65.3711 1.97938 64.6855 1.5808 63.8305 1.5808Z" fill="#2E2520"/>
<path d="M69.9247 11.8259H68.8709V1.49222H69.9247V6.2457H74.0514V1.49222H75.1053V11.8259H74.0514V6.39332H69.9247V11.8259Z" fill="#2E2520"/>
<path d="M80.5226 11.8259H80.3575L81.4622 1.49222H81.8812L84.5477 11.0435L87.2014 1.49222H87.6204L88.7251 11.8259H87.6712L86.7951 3.55895L84.4969 11.8259H83.6969L81.3733 3.66229L80.5226 11.8259Z" fill="#2E2520"/>
<path d="M95.7588 1.49222C95.9196 1.67921 96 1.92033 96 2.21558C96 2.46162 95.9534 2.71258 95.8603 2.96846L93.5875 8.32719V11.8259H92.5336V8.65196L89.9941 1.49222H91.0734L93.4986 8.15004L95.708 2.96846C95.8011 2.72242 95.8476 2.46654 95.8476 2.20082C95.8476 1.9351 95.7841 1.72842 95.6572 1.5808L95.7588 1.49222Z" fill="#2E2520"/>
<path d="M1.79002 14.541C2.44636 14.5064 3.08779 14.489 3.71429 14.489C4.35572 14.489 5.02698 14.5671 5.72807 14.7231C6.44408 14.8792 7.14517 15.174 7.83134 15.6076C8.53243 16.0238 9.12165 16.5701 9.59899 17.2465C10.0912 17.9055 10.4865 18.7813 10.7849 19.8739C11.0832 20.9665 11.2324 22.2933 11.2324 23.8541C11.2324 25.4149 11.0086 26.8197 10.5611 28.0684C10.1285 29.2997 9.53186 30.2449 8.7711 30.9039C7.29434 32.1873 5.51177 32.829 3.42342 32.829C2.69249 32.829 1.92427 32.7943 1.11876 32.7249H0V14.541H1.79002ZM1.85715 32.5168C2.1704 32.5515 2.5657 32.5688 3.04304 32.5688C3.52038 32.5688 3.87838 32.5602 4.11705 32.5428C4.35572 32.5255 4.68389 32.4561 5.10156 32.3347C5.51923 32.196 5.90707 32.0139 6.26507 31.7884C6.62308 31.563 6.996 31.2334 7.38384 30.7999C7.78659 30.349 8.12968 29.82 8.4131 29.213C9.05452 27.7909 9.37524 25.9352 9.37524 23.646C9.37524 22.0158 9.20369 20.611 8.86061 19.4317C8.51752 18.235 8.12222 17.3506 7.67472 16.7783C7.24213 16.2059 6.71258 15.755 6.08607 15.4255C5.45957 15.0787 4.95985 14.8792 4.58693 14.8272C4.21401 14.7752 3.78142 14.7492 3.28916 14.7492C2.79691 14.7492 2.31957 14.7752 1.85715 14.8272V32.5168Z" fill="#2E2520"/>
<path d="M60.2194 32.7249H59.9286V14.515H60.6893L69.9974 31.3462V14.515H70.2883V32.7249H68.6549L60.2194 17.6367V32.7249Z" fill="#2E2520"/>
<path d="M84.0664 14.515H84.3573V24.9207C84.3573 27.6435 83.8949 29.6466 82.97 30.9299C82.0452 32.196 80.8369 32.829 79.3452 32.829C78.4055 32.829 77.6074 32.7336 76.9511 32.5428C76.2947 32.3347 75.6757 31.9618 75.0939 31.4242C73.9006 30.349 73.3039 28.1811 73.3039 24.9207V14.515H75.161V24.8947C75.161 28.051 75.5713 30.1582 76.3917 31.2161C76.8093 31.7364 77.2419 32.0919 77.6894 32.2827C78.1519 32.4734 78.7038 32.5688 79.3452 32.5688C80.7772 32.5688 81.9184 31.9618 82.7686 30.7478C83.6338 29.5165 84.0664 27.5654 84.0664 24.8947V14.515Z" fill="#2E2520"/>
<path d="M91.9904 32.7249H90.1332V14.7752H86.2623V14.515H95.8837V14.7752H91.9904V32.7249Z" fill="#2E2520"/>
</svg>
