<svg aria-hidden="true" style="position: absolute; width: 0; height: 0; overflow: hidden;" version="1.1" xmlns="http://www.w3.org/2000/svg" xmlns:xlink="http://www.w3.org/1999/xlink">
<defs>
<symbol id="chat" viewBox="0 0 31 32">
<path d="M23.636 14.939c0-6.705-5.914-11.099-11.818-11.099-5.928 0-11.818 4.415-11.818 11.099 0 2.529 0.927 5.001 2.609 6.963 0.064 0.075 0.089 0.189 0.064 0.297-0.529 2.314-1.78 4.404-2.294 5.196-0.16 0.246-0.186 0.572-0.069 0.85 0.115 0.272 0.342 0.438 0.596 0.438 0.006 0 0.011 0 0.017-0 2.514-0.075 5.427-0.923 7.228-3.039 0.063-0.074 0.153-0.103 0.242-0.078 1.107 0.314 2.258 0.473 3.424 0.473 5.926-0 11.818-4.414 11.818-11.099zM8.602 24.519c-0.391-0.111-0.795 0.023-1.080 0.358-1.801 2.116-4.742 2.597-6.134 2.704 0.636-1.049 1.67-2.976 2.155-5.099 0.111-0.485-0.006-1.003-0.304-1.351-1.529-1.783-2.338-3.924-2.338-6.193 0-5.527 4.898-10.024 10.918-10.024s10.918 4.497 10.918 10.024c0 5.527-4.898 10.024-10.918 10.024-1.095 0-2.177-0.149-3.216-0.444z"></path>
<path d="M26.53 23.875c2.624-1.584 4.19-4.285 4.19-7.224 0-4.154-3.142-7.703-7.471-8.44-0.246-0.042-0.474 0.163-0.509 0.457s0.136 0.566 0.382 0.608c3.881 0.66 6.698 3.762 6.698 7.375 0 2.525-1.382 4.867-3.696 6.264-0.45 0.272-0.691 0.873-0.586 1.461 0.219 1.232 0.686 2.373 1.060 3.147-2.657-0.529-3.665-2.052-3.983-2.712-0.197-0.407-0.564-0.659-0.961-0.659-0.001 0-0.002 0-0.003 0h-0.033c-0.499 0-0.999-0.041-1.485-0.123-0.245-0.041-0.474 0.164-0.508 0.458s0.137 0.566 0.383 0.607c0.528 0.089 1.069 0.133 1.61 0.133h0.037c0.075 0 0.144 0.046 0.181 0.122 1.219 2.524 4.020 3.169 5.168 3.329 0.254 0.035 0.495-0.103 0.63-0.362s0.133-0.578-0.004-0.835c-0.346-0.644-0.963-1.932-1.212-3.328-0.020-0.111 0.026-0.226 0.112-0.278z"></path>
<path d="M4.815 13.016c-0.86 0-1.56 0.836-1.56 1.864s0.7 1.864 1.56 1.864c0.86 0 1.56-0.836 1.56-1.864s-0.7-1.864-1.56-1.864zM4.815 15.668c-0.364 0-0.66-0.354-0.66-0.788s0.296-0.788 0.66-0.788 0.66 0.354 0.66 0.788c0 0.435-0.296 0.788-0.66 0.788z"></path>
<path d="M9.265 13.016c-0.86 0-1.56 0.836-1.56 1.864s0.7 1.864 1.56 1.864c0.86 0 1.56-0.836 1.56-1.864s-0.7-1.864-1.56-1.864zM9.265 15.668c-0.364 0-0.66-0.354-0.66-0.788s0.296-0.788 0.66-0.788 0.66 0.354 0.66 0.788c0 0.435-0.296 0.788-0.66 0.788z"></path>
<path d="M13.714 13.016c-0.86 0-1.56 0.836-1.56 1.864s0.7 1.864 1.56 1.864c0.86 0 1.56-0.836 1.56-1.864s-0.7-1.864-1.56-1.864zM13.714 15.668c-0.364 0-0.66-0.354-0.66-0.788s0.296-0.788 0.66-0.788 0.66 0.354 0.66 0.788c0 0.435-0.296 0.788-0.66 0.788z"></path>
<path d="M18.163 13.016c-0.86 0-1.56 0.836-1.56 1.864s0.7 1.864 1.56 1.864c0.86 0 1.56-0.836 1.56-1.864s-0.7-1.864-1.56-1.864zM18.163 15.668c-0.364 0-0.66-0.354-0.66-0.788s0.296-0.788 0.66-0.788 0.66 0.354 0.66 0.788c0 0.435-0.296 0.788-0.66 0.788z"></path>
</symbol>
<symbol id="clock" viewBox="0 0 32 32">
<path d="M16 0c-8.822 0-16 7.178-16 16s7.178 16 16 16c8.822 0 16-7.178 16-16s-7.178-16-16-16zM16 30.933c-8.234 0-14.933-6.699-14.933-14.933s6.699-14.933 14.933-14.933c8.234 0 14.933 6.699 14.933 14.933s-6.699 14.933-14.933 14.933z"></path>
<path d="M16.533 13.878v-5.409c0-0.295-0.239-0.533-0.533-0.533s-0.533 0.238-0.533 0.533v5.409c-0.746 0.194-1.33 0.778-1.524 1.524h-3.809c-0.294 0-0.533 0.238-0.533 0.533s0.239 0.533 0.533 0.533h3.809c0.238 0.917 1.067 1.6 2.058 1.6 1.177 0 2.133-0.957 2.133-2.133 0-0.992-0.683-1.819-1.6-2.058zM16 17.002c-0.588 0-1.067-0.478-1.067-1.067s0.478-1.067 1.067-1.067c0.588 0 1.067 0.478 1.067 1.067s-0.478 1.067-1.067 1.067z"></path>
<path d="M16 5.269c0.294 0 0.533-0.238 0.533-0.533v-0.533c0-0.295-0.239-0.533-0.533-0.533s-0.533 0.238-0.533 0.533v0.533c0 0.295 0.239 0.533 0.533 0.533z"></path>
<path d="M16 26.602c-0.294 0-0.533 0.238-0.533 0.533v0.533c0 0.295 0.239 0.533 0.533 0.533s0.533-0.238 0.533-0.533v-0.533c0-0.295-0.239-0.533-0.533-0.533z"></path>
<path d="M27.733 15.402h-0.533c-0.294 0-0.533 0.238-0.533 0.533s0.239 0.533 0.533 0.533h0.533c0.294 0 0.533-0.238 0.533-0.533s-0.239-0.533-0.533-0.533z"></path>
<path d="M4.8 15.402h-0.533c-0.294 0-0.533 0.238-0.533 0.533s0.239 0.533 0.533 0.533h0.533c0.294 0 0.533-0.238 0.533-0.533s-0.239-0.533-0.533-0.533z"></path>
<path d="M23.919 7.262l-0.377 0.377c-0.209 0.209-0.209 0.546 0 0.754 0.104 0.104 0.241 0.156 0.377 0.156s0.273-0.052 0.377-0.156l0.377-0.377c0.209-0.209 0.209-0.546 0-0.754s-0.546-0.208-0.754 0z"></path>
<path d="M7.703 23.478l-0.377 0.377c-0.209 0.209-0.209 0.546 0 0.754 0.104 0.104 0.241 0.156 0.377 0.156s0.273-0.052 0.377-0.156l0.377-0.377c0.209-0.209 0.209-0.546 0-0.754s-0.546-0.208-0.754 0z"></path>
<path d="M24.297 23.478c-0.209-0.209-0.546-0.209-0.754 0s-0.209 0.546 0 0.754l0.377 0.377c0.104 0.104 0.241 0.156 0.377 0.156s0.273-0.052 0.377-0.156c0.209-0.209 0.209-0.546 0-0.754l-0.377-0.377z"></path>
<path d="M8.081 7.261c-0.209-0.209-0.546-0.209-0.754 0s-0.209 0.546 0 0.754l0.377 0.377c0.104 0.104 0.241 0.156 0.377 0.156s0.273-0.052 0.377-0.156c0.209-0.209 0.209-0.546 0-0.754l-0.377-0.377z"></path>
</symbol>
<symbol id="close" viewBox="0 0 32 32">
<path d="M30.355 32c0.422 0 0.843-0.16 1.163-0.483 0.643-0.643 0.643-1.685 0-2.328l-28.707-28.707c-0.643-0.643-1.685-0.643-2.328 0s-0.643 1.685 0 2.329l28.707 28.706c0.323 0.321 0.744 0.483 1.165 0.483z"></path>
<path d="M1.645 32c0.422 0 0.843-0.16 1.163-0.483l28.709-28.706c0.643-0.643 0.643-1.686 0-2.329s-1.685-0.643-2.329 0l-28.707 28.707c-0.643 0.643-0.643 1.685 0 2.328 0.323 0.321 0.744 0.483 1.163 0.483z"></path>
</symbol>
<symbol id="facebook" viewBox="0 0 32 32">
<path d="M22.512 0.007l-3.617-0.007c-4.064 0-6.69 3.091-6.69 7.875v3.631h-3.637c-0.314 0-0.569 0.292-0.569 0.653v5.261c0 0.361 0.255 0.652 0.569 0.652h3.637v13.275c0 0.36 0.254 0.652 0.569 0.652h4.745c0.314 0 0.569-0.292 0.569-0.652v-13.275h4.252c0.314 0 0.569-0.292 0.569-0.652l0.002-5.261c0-0.173-0.060-0.339-0.167-0.461s-0.252-0.191-0.402-0.191h-4.254v-3.078c0-1.479 0.307-2.23 1.987-2.23l2.437-0.001c0.314 0 0.568-0.292 0.568-0.652v-4.885c0-0.36-0.254-0.652-0.568-0.652z"></path>
</symbol>
<symbol id="hat" viewBox="0 0 31 32">
<path d="M22.224 8.572c-0.116 0-0.228-0.052-0.31-0.144s-0.129-0.218-0.129-0.349c-0.034-1.889-0.726-3.688-1.927-5.011s-2.816-2.063-4.497-2.063c-1.682 0-3.296 0.741-4.497 2.063s-1.893 3.122-1.927 5.011c0 0.131-0.046 0.256-0.129 0.349s-0.194 0.144-0.31 0.144c-0.116 0-0.228-0.052-0.31-0.144s-0.129-0.218-0.129-0.349c0.030-2.154 0.812-4.209 2.178-5.72s3.207-2.359 5.124-2.359c1.917 0 3.758 0.847 5.124 2.359s2.148 3.566 2.178 5.72c0 0.131-0.046 0.256-0.129 0.349s-0.194 0.144-0.31 0.144z"></path>
<path d="M23.505 19.732c-0.116 0.001-0.228-0.050-0.311-0.142s-0.13-0.217-0.13-0.348c-0.001-0.131 0.045-0.256 0.127-0.35s0.193-0.146 0.309-0.147c1.671-0.011 3.272-0.759 4.458-2.082s1.863-3.117 1.884-4.995c-0.017-1.896-0.702-3.708-1.905-5.037s-2.827-2.068-4.515-2.054c-0.648-0.001-1.292 0.106-1.912 0.319-0.111 0.036-0.23 0.022-0.331-0.040s-0.177-0.166-0.211-0.289-0.023-0.258 0.030-0.373c0.053-0.115 0.145-0.202 0.254-0.241 0.703-0.241 1.434-0.363 2.169-0.362 1.92-0.014 3.767 0.829 5.135 2.343s2.146 3.577 2.163 5.734c-0.022 2.137-0.79 4.179-2.139 5.687s-3.169 2.361-5.071 2.376h-0.005z"></path>
<path d="M7.215 19.732h-0.005c-1.902-0.015-3.723-0.868-5.071-2.376s-2.116-3.55-2.139-5.687c0.017-2.158 0.795-4.22 2.163-5.734s3.215-2.357 5.135-2.343c0.735-0.001 1.466 0.121 2.169 0.362 0.056 0.018 0.108 0.049 0.153 0.090s0.083 0.092 0.11 0.149c0.028 0.058 0.045 0.121 0.051 0.186s-0 0.131-0.017 0.193c-0.017 0.063-0.045 0.121-0.082 0.171s-0.083 0.092-0.134 0.122c-0.052 0.030-0.108 0.049-0.166 0.054s-0.116-0.002-0.172-0.022c-0.62-0.212-1.264-0.32-1.912-0.319-1.688-0.014-3.311 0.725-4.515 2.054s-1.889 3.141-1.905 5.037c0.022 1.878 0.698 3.671 1.884 4.995s2.787 2.071 4.458 2.082c0.058 0 0.115 0.014 0.168 0.039s0.101 0.062 0.142 0.108 0.073 0.101 0.094 0.161c0.022 0.060 0.033 0.124 0.032 0.189s-0.012 0.129-0.034 0.189c-0.022 0.060-0.055 0.114-0.096 0.159s-0.090 0.082-0.143 0.106-0.111 0.037-0.168 0.036z"></path>
<path d="M23.505 32h-16.29c-0.116 0-0.228-0.052-0.31-0.145s-0.129-0.218-0.129-0.349v-12.267c0-0.131 0.046-0.256 0.129-0.349s0.194-0.144 0.31-0.144 0.228 0.052 0.31 0.144c0.082 0.093 0.129 0.218 0.129 0.349v11.774h15.413v-11.774c0-0.131 0.046-0.256 0.128-0.349s0.194-0.144 0.31-0.144c0.116 0 0.228 0.052 0.31 0.144s0.128 0.218 0.128 0.349v12.267c0 0.131-0.046 0.256-0.128 0.349s-0.194 0.145-0.31 0.145z"></path>
<path d="M26.56 27.222h-16.29c-0.116 0-0.228-0.052-0.31-0.145s-0.129-0.218-0.129-0.349c0-0.131 0.046-0.256 0.129-0.349s0.194-0.145 0.31-0.145h16.29c0.116 0 0.228 0.052 0.31 0.145s0.129 0.218 0.129 0.349c0 0.131-0.046 0.256-0.129 0.349s-0.194 0.145-0.31 0.145z"></path>
</symbol>
<symbol id="instagram" viewBox="0 0 32 32">
<path d="M16.316 32c-0.106 0-0.212 0-0.319-0-2.508 0.006-4.826-0.058-7.080-0.195-2.066-0.126-3.953-0.84-5.455-2.065-1.45-1.182-2.44-2.781-2.942-4.75-0.438-1.715-0.461-3.398-0.483-5.026-0.016-1.168-0.033-2.553-0.036-3.96 0.003-1.414 0.020-2.798 0.036-3.966 0.022-1.628 0.045-3.311 0.483-5.026 0.503-1.97 1.493-3.568 2.942-4.75 1.503-1.225 3.389-1.939 5.456-2.065 2.254-0.137 4.572-0.201 7.086-0.195 2.509-0.005 4.826 0.058 7.080 0.195 2.066 0.126 3.953 0.84 5.455 2.065 1.45 1.182 2.44 2.781 2.943 4.75 0.437 1.715 0.461 3.398 0.483 5.026 0.016 1.168 0.033 2.553 0.036 3.96v0.006c-0.003 1.408-0.020 2.792-0.036 3.96-0.022 1.628-0.045 3.311-0.483 5.026-0.503 1.97-1.493 3.568-2.943 4.75-1.502 1.225-3.389 1.939-5.455 2.065-2.159 0.131-4.376 0.195-6.768 0.195zM15.997 29.5c2.468 0.006 4.733-0.056 6.934-0.19 1.563-0.095 2.917-0.602 4.027-1.507 1.026-0.837 1.732-1.991 2.1-3.431 0.364-1.428 0.385-2.96 0.406-4.442 0.016-1.16 0.032-2.535 0.036-3.929-0.004-1.394-0.020-2.769-0.036-3.929-0.020-1.482-0.041-3.015-0.406-4.443-0.367-1.44-1.074-2.594-2.1-3.431-1.11-0.905-2.465-1.412-4.027-1.507-2.201-0.134-4.467-0.196-6.928-0.19-2.467-0.006-4.733 0.056-6.934 0.19-1.563 0.095-2.917 0.602-4.027 1.507-1.026 0.837-1.732 1.991-2.1 3.431-0.364 1.428-0.385 2.96-0.406 4.443-0.016 1.161-0.032 2.537-0.036 3.932 0.003 1.389 0.020 2.765 0.036 3.926 0.020 1.482 0.041 3.015 0.406 4.442 0.367 1.44 1.074 2.594 2.1 3.431 1.11 0.905 2.465 1.412 4.027 1.507 2.201 0.134 4.467 0.197 6.928 0.191zM15.937 23.812c-4.308 0-7.813-3.505-7.813-7.812s3.505-7.813 7.813-7.813c4.308 0 7.813 3.505 7.813 7.813s-3.505 7.812-7.813 7.812zM15.937 10.687c-2.929 0-5.313 2.383-5.313 5.313s2.383 5.312 5.313 5.312c2.93 0 5.313-2.383 5.313-5.312s-2.383-5.313-5.313-5.313zM24.625 5.687c-1.035 0-1.875 0.839-1.875 1.875s0.84 1.875 1.875 1.875c1.036 0 1.875-0.839 1.875-1.875s-0.839-1.875-1.875-1.875z"></path>
</symbol>
<symbol id="location" viewBox="0 0 27 32">
<path d="M13.538 0c7.465 0 13.538 5.468 13.538 12.188 0 2.659-0.933 5.186-2.701 7.306l-10.003 12.128c-0.025 0.029-0.063 0.041-0.091 0.067-0.5 0.482-1.221 0.361-1.577-0.067-2.881-3.46-8.161-9.922-10.191-12.359 0 0-0.001-0.002-0.001-0.003l-0.012-0.015c-1.636-2.069-2.5-4.509-2.5-7.057 0-6.72 6.074-12.188 13.538-12.188zM13.538 18.762c4.019 0 7.304-2.957 7.304-6.575s-3.285-6.575-7.304-6.575c-4.019 0-7.304 2.957-7.304 6.575s3.285 6.575 7.304 6.575z"></path>
</symbol>
<symbol id="logo" viewBox="0 0 43 32">
<path d="M25.646 15.991c0 0.259-0.005 0.517 0 0.777 0.054 2.632-0.447 5.003-1.25 7.239-0.269 0.75-0.527 1.512-0.759 2.296-0.191 0.644-0.457 1.095-0.871 1.359-0.231 0.147-0.445 0.402-0.639 0.664-0.892 1.209-1.903 2.074-2.985 2.684-0.719 0.405-1.458 0.761-2.239 0.745-0.233-0.004-0.466 0.113-0.699 0.114s-0.466-0.123-0.697-0.107c-1.007 0.071-1.939-0.438-2.865-0.971-1.011-0.582-1.903-1.501-2.742-2.597-1.184-1.545-2.028-3.492-2.649-5.72-0.334-1.201-0.607-2.441-0.684-3.774-0.013-0.221-0.058-0.44-0.097-0.655-0.282-1.495-0.12-2.962 0.055-4.451 0.133-1.139 0.27-2.265 0.53-3.347 0.686-2.861 1.775-5.204 3.283-7.045 1.258-1.533 2.665-2.475 4.195-2.88 1.756-0.464 3.47-0.13 5.133 0.955 0.83 0.543 1.613 1.231 2.297 2.142 0.638 0.85 1.213 1.844 1.757 2.86 0.493 0.921 0.842 2.018 1.155 3.137 0.488 1.748 0.806 3.558 0.773 5.502-0.007 0.359-0.002 0.716-0.002 1.071zM24.972 12.449c-0.049-0.611-0.079-1.319-0.17-2.006-0.259-1.977-0.956-3.52-1.886-4.78-0.528-0.716-1.103-1.339-1.67-1.972-0.192-0.215-0.415-0.412-0.639-0.478-0.576-0.174-1.159-0.337-1.743-0.386-1.014-0.085-1.925-0.514-2.69-1.672-0.563-0.851-1.177-0.934-1.763-0.184-0.664 0.849-1.419 1.347-2.189 1.84-0.564 0.361-1.108 0.817-1.65 1.266-0.453 0.377-0.717 0.964-0.711 1.853 0.004 0.499-0.136 0.915-0.417 1.192-0.235 0.232-0.46 0.488-0.675 0.767-0.6 0.775-1.068 1.649-1.169 3.004-0.080 1.072-0.277 2.131-0.725 3.014-0.15 0.304-0.242 0.672-0.267 1.060-0.041 0.801-0.024 1.612-0.012 2.418 0.003 0.216 0.060 0.447 0.128 0.637 0.155 0.449 0.323 0.884 0.504 1.305 0.439 1.003 0.821 2.030 0.91 3.303 0.085 1.234 0.448 2.239 1.063 3.006 0.89 1.112 1.747 2.293 2.65 3.375 0.485 0.584 1.005 1.094 1.645 1.212s1.268 0.404 1.842 0.934c0.12 0.106 0.252 0.173 0.388 0.196 0.81 0.143 1.559-0.186 2.27-0.808 0.223-0.195 0.453-0.372 0.683-0.542 0.556-0.408 1.172-0.677 1.656-1.245 0.538-0.634 1.114-0.915 1.732-1.093 0.267-0.077 0.485-0.257 0.659-0.583 0.207-0.387 0.399-0.796 0.616-1.17 0.224-0.386 0.385-0.796 0.424-1.346 0.060-0.843 0.28-1.586 0.558-2.301 0.472-1.208 0.74-2.542 0.879-3.961 0.037-0.372 0.058-0.687-0.055-1.015-0.325-0.945-0.192-2.019-0.295-3.025-0.052-0.544 0.068-1.139 0.118-1.817l-0.001 0.001zM21.064 3.005c-0.137-0.249-0.181-0.361-0.243-0.431-0.112-0.127-0.234-0.231-0.354-0.341-1.019-0.942-2.136-1.401-3.276-1.73-0.229-0.066-0.47-0.037-0.704-0.022-0.061 0.004-0.133 0.101-0.172 0.188-0.018 0.040 0.022 0.179 0.056 0.246 0.254 0.496 0.585 0.871 0.958 1.083 0.644 0.38 1.321 0.589 2.005 0.618 0.29 0.013 0.579 0.103 0.867 0.168 0.246 0.057 0.492 0.126 0.862 0.221zM12.404 30.166c-0.684-0.918-1.284-1.738-1.894-2.536-0.505-0.661-1.021-1.299-1.538-1.936-0.058-0.072-0.149-0.070-0.276-0.123 0.622 1.715 2.7 4.32 3.708 4.596zM7.795 8.75c0.413-0.517 0.794-1.062 1.213-1.512 0.588-0.628 0.812-1.41 0.673-2.751-0.417 0.56-0.714 1.234-1.036 1.846-0.34 0.646-0.592 1.415-0.875 2.138-0.022 0.059 0.014 0.174 0.024 0.279zM21.709 28.317c-0.385-0.043-0.772 0.068-1.014 0.409-0.458 0.647-1.003 0.972-1.558 1.296-0.291 0.17-0.566 0.419-0.84 0.656-0.038 0.033-0.045 0.207-0.037 0.31 0.003 0.034 0.105 0.091 0.148 0.068 0.498-0.278 1.012-0.503 1.484-0.875 0.578-0.455 1.121-1.032 1.674-1.567 0.058-0.053 0.089-0.179 0.143-0.297zM7.006 19.349c-0.111 0.535-0.089 0.832-0.019 1.147 0.193 0.876 0.31 1.8 0.658 2.565 0.129 0.284 0.155 0.918 0.393 0.781 0.209-0.119-0.036-0.622-0.050-0.96-0.055-1.294-0.469-2.337-0.982-3.533zM10.739 3.236l0.052 0.128c0.288-0.175 0.578-0.341 0.862-0.528 0.619-0.407 1.235-0.822 1.85-1.245 0.124-0.086 0.238-0.224 0.343-0.363 0.030-0.040 0.024-0.174 0.015-0.256-0.005-0.037-0.063-0.077-0.097-0.080-0.058 0.002-0.115 0.018-0.17 0.046-0.836 0.39-1.624 0.966-2.378 1.666-0.176 0.164-0.32 0.419-0.478 0.631zM25.417 17.132c0.050-0.096 0.090-0.137 0.093-0.182 0.082-1.41-0.009-2.807-0.127-4.2-0.006-0.070-0.065-0.17-0.105-0.179-0.044-0.010-0.114 0.051-0.141 0.116-0.044 0.103-0.072 0.223-0.080 0.349-0.044 1.149 0.002 2.303 0.137 3.433 0.027 0.228 0.142 0.429 0.223 0.663zM6.804 13.242c0.326-0.204 0.375-0.574 0.41-0.907 0.085-0.814 0.298-1.597 0.228-2.458-0.341 1.027-0.643 2.067-0.638 3.365h-0zM14.697 31.109c-0.731-0.531-0.929-0.587-1.58-0.438 0.276 0.172 0.524 0.444 0.774 0.449 0.26 0.007 0.542 0.53 0.807-0.011h-0z"></path>
<path d="M16.205 20.551c-0.5-0.015-0.843-0.358-1.098-1.022-0.237-0.619-0.631-0.94-0.992-1.321-0.455-0.48-0.825-1.022-0.93-1.996-0.073-0.66 0.012-1.234 0.175-1.755 0.137-0.436 0.382-0.841 0.639-1.1 0.279-0.281 0.51-0.546 0.638-1.065 0.146-0.597 0.513-0.633 0.837-0.741 0.306-0.101 0.617-0.166 0.919-0.293 0.413-0.173 0.787-0.119 1.088 0.408 0.233 0.409 0.505 0.702 0.808 0.951 0.315 0.258 0.42 0.559 0.321 1.098-0.067 0.366-0.002 0.615 0.081 0.907 0.091 0.318 0.184 0.642 0.247 0.978 0.208 1.119-0.031 2.061-0.671 2.56-0.397 0.309-0.7 0.72-0.799 1.444-0.040 0.292-0.15 0.457-0.307 0.533-0.316 0.152-0.637 0.277-0.957 0.413zM18.304 15.859c0.010-1.972-0.9-3.548-2.084-3.551-1.062 0-2.131 1.18-2.173 3.441-0.033 1.81 0.885 3.496 2.083 3.502 1.458 0.012 2.146-1.65 2.174-3.393zM14.035 17.744c0-0.253 0.015-0.382-0.002-0.499-0.157-1.071-0.259-2.132 0.097-3.163 0.026-0.074-0.033-0.227-0.053-0.343-0.070 0.037-0.154 0.045-0.207 0.116-0.588 0.793-0.851 2.696 0.166 3.889zM16.221 11.814c0.246 0.148 0.387 0.253 0.534 0.318 0.542 0.236 1.005 0.659 1.327 1.44 0.064 0.154 0.146 0.382 0.267 0.207 0.065-0.094 0.086-0.379 0.049-0.522-0.050-0.19-0.164-0.427-0.274-0.464-0.298-0.102-0.461-0.457-0.655-0.765-0.327-0.515-0.691-0.676-1.247-0.214zM16.187 19.575l-0.007-0.074c-0.156 0-0.314-0.022-0.468 0.009-0.079 0.016-0.151 0.126-0.226 0.194 0.068 0.099 0.128 0.255 0.206 0.287 0.42 0.174 0.844 0.211 1.259-0.055 0.071-0.046 0.15-0.105 0.194-0.199 0.039-0.080 0.052-0.221 0.044-0.328-0.003-0.040-0.101-0.1-0.15-0.087-0.285 0.073-0.568 0.166-0.851 0.252l-0.001 0.001zM18.337 17.553c0.291-0.089 0.421-0.358 0.438-0.773 0.013-0.349 0.009-0.699-0.009-1.048-0.005-0.092-0.083-0.174-0.127-0.261-0.065 0.101-0.196 0.236-0.184 0.296 0.118 0.605-0.129 1.146-0.117 1.783v0.001z"></path>
<path d="M21 20.283c-0.017 0.014-0.084 0.107-0.157 0.119-0.067 0.013-0.164-0.024-0.205-0.1-0.207-0.383-0.408-0.777-0.593-1.189-0.049-0.108-0.068-0.398-0.041-0.423 0.091-0.082 0.269-0.168 0.308-0.097 0.234 0.424 0.44 0.89 0.652 1.347 0.021 0.046 0.014 0.124 0.036 0.343z"></path>
<path d="M11.087 23.602c0.108 0.014 0.322 0.025 0.53 0.084 0.052 0.015 0.121 0.181 0.121 0.281s-0.060 0.271-0.112 0.293c-0.405 0.165-0.809 0.206-1.167-0.239-0.020-0.031-0.036-0.069-0.046-0.112s-0.014-0.088-0.011-0.133c0.008-0.066 0.071-0.159 0.113-0.164 0.156-0.021 0.312-0.010 0.572-0.010z"></path>
<path d="M23.786 9.606l0.153 0.138c-0.043 0.128-0.070 0.333-0.133 0.37-0.292 0.176-0.591 0.316-0.896 0.419-0.088 0.028-0.215-0.113-0.296-0.23-0.093-0.135-0.038-0.428 0.080-0.457 0.345-0.087 0.693-0.154 1.092-0.24z"></path>
<path d="M13.47 26.452c0.162 0.124 0.298 0.159 0.364 0.292 0.181 0.369 0.347 0.759 0.497 1.165 0.073 0.193 0.006 0.403-0.116 0.458-0.067 0.031-0.189-0.059-0.239-0.159-0.198-0.391-0.381-0.801-0.549-1.228-0.039-0.102 0.021-0.305 0.043-0.528z"></path>
<path d="M19.831 11.051c0.010-0.113 0-0.242 0.032-0.292 0.044-0.065 0.137-0.119 0.182-0.084 0.061 0.048 0.101 0.18 0.143 0.284 0.117 0.289 0.234 0.579 0.346 0.876 0.050 0.133 0.117 0.274 0.121 0.417 0.005 0.132-0.044 0.304-0.105 0.394-0.034 0.051-0.173 0.018-0.207-0.053-0.224-0.468-0.493-0.905-0.513-1.542z"></path>
<path d="M20.528 6.082c-0.049 0.478-0.068 0.829-0.124 1.166-0.035 0.182-0.103 0.342-0.194 0.461-0.064 0.085-0.176 0.073-0.267 0.104-0.007-0.139-0.034-0.284-0.018-0.415 0.047-0.407 0.111-0.809 0.167-1.212 0.004-0.031 0.003-0.065 0.009-0.096 0.045-0.244 0.141-0.429 0.296-0.328 0.078 0.051 0.114 0.274 0.132 0.321z"></path>
<path d="M16.344 9.188c0.136 0.028 0.313 0.043 0.481 0.11 0.058 0.023 0.142 0.193 0.133 0.266-0.017 0.131-0.084 0.303-0.154 0.342-0.111 0.057-0.23 0.058-0.342 0.003-0.194-0.101-0.375-0.135-0.569-0.002-0.127 0.088-0.247-0.004-0.281-0.212-0.045-0.279 0.082-0.414 0.226-0.453 0.153-0.042 0.311-0.035 0.505-0.053z"></path>
<path d="M19.371 22.909c-0.055 0.395-0.097 0.742-0.157 1.081-0.012 0.067-0.097 0.156-0.133 0.141-0.065-0.026-0.155-0.109-0.168-0.196-0.029-0.187-0.032-0.383-0.010-0.573 0.046-0.347 0.091-0.677 0.005-1.031-0.041-0.17-0.029-0.441 0.128-0.44 0.085 0 0.207 0.172 0.245 0.314 0.062 0.227 0.066 0.495 0.090 0.705z"></path>
<path d="M16.983 22.808c-0.032 0.093-0.047 0.202-0.088 0.249-0.256 0.289-0.512 0.579-0.78 0.832-0.069 0.064-0.189 0.025-0.277-0.018-0.128-0.062-0.155-0.34-0.049-0.452 0.294-0.309 0.59-0.616 0.893-0.901 0.049-0.046 0.146 0.004 0.208 0.055 0.042 0.035 0.061 0.148 0.093 0.235z"></path>
<path d="M13.728 4.242c0.041 0.040 0.12 0.075 0.13 0.138 0.101 0.613 0.199 1.229 0.28 1.85 0.022 0.172-0.117 0.268-0.21 0.165-0.293-0.324-0.476-1.524-0.305-2.026 0.018-0.050 0.061-0.075 0.105-0.127z"></path>
<path d="M17.353 5.984c-0.088-0.097-0.184-0.146-0.197-0.23-0.014-0.091 0.032-0.246 0.081-0.318 0.215-0.316 0.44-0.613 0.675-0.89 0.079-0.091 0.243-0.156 0.303-0.084 0.143 0.165 0.068 0.398-0.032 0.568-0.134 0.23-0.267 0.472-0.421 0.657-0.118 0.14-0.27 0.2-0.41 0.297z"></path>
<path d="M11.774 9.224l-0.214 0.333c-0.061-0.109-0.152-0.199-0.178-0.329-0.103-0.508-0.189-1.025-0.271-1.543-0.011-0.071 0.024-0.217 0.061-0.242 0.059-0.040 0.157-0.056 0.202 0 0.089 0.108 0.191 0.252 0.22 0.414 0.076 0.422 0.117 0.863 0.18 1.366z"></path>
<path d="M9.426 17.737c-0.197 0.592-0.346 1.198-0.713 1.521-0.062 0.054-0.198-0.015-0.264-0.102-0.112-0.146 0-0.267 0.055-0.392 0.172-0.388 0.331-0.794 0.514-1.167 0.047-0.096 0.167-0.143 0.248-0.13 0.055 0.008 0.1 0.163 0.16 0.27z"></path>
<path d="M11.649 17.787c0.103 0.098 0.177 0.127 0.191 0.191 0.023 0.105 0.035 0.27 0 0.343-0.056 0.116-0.153 0.183-0.236 0.261-0.215 0.203-0.428 0.416-0.651 0.589-0.068 0.053-0.192 0.037-0.252-0.034-0.125-0.146-0.081-0.38 0.019-0.483 0.307-0.316 0.63-0.592 0.929-0.866z"></path>
<path d="M22.775 15.107c-0.079 0.293-0.19 0.734-0.322 1.158-0.020 0.066-0.148 0.101-0.202 0.062-0.050-0.037-0.105-0.203-0.095-0.293 0.053-0.472 0.111-0.945 0.2-1.4 0.027-0.139 0.15-0.265 0.244-0.312 0.035-0.017 0.126 0.199 0.17 0.331 0.025 0.074 0.004 0.189 0.004 0.453z"></path>
<path d="M9.364 11.59c0.348 0.513 0.307 1.209 0.345 1.851 0.007 0.119-0.083 0.29-0.156 0.377-0.038 0.045-0.192-0.027-0.195-0.069-0.055-0.649-0.097-1.302-0.131-1.955-0.003-0.056 0.079-0.124 0.136-0.203z"></path>
<path d="M17.502 27.464c0.058 0.025 0.116 0.056 0.172 0.092 0.209 0.159 0.42 0.314 0.624 0.489 0.097 0.083 0.194 0.186 0.264 0.318 0.080 0.153-0.011 0.447-0.124 0.407-0.38-0.135-0.75-0.322-1.034-0.788-0.042-0.069-0.041-0.241-0.027-0.356 0.008-0.065 0.081-0.109 0.126-0.164z"></path>
<path d="M12.883 11.778c0.020 0.103 0.089 0.263 0.065 0.363-0.127 0.531-0.275 1.050-0.425 1.566-0.018 0.063-0.097 0.119-0.144 0.109-0.041-0.008-0.097-0.102-0.108-0.174-0.080-0.574 0.171-1.602 0.451-1.861 0.029-0.027 0.075-0.004 0.161-0.004z"></path>
<path d="M23.735 20.497c-0.044-0.045-0.135-0.101-0.182-0.208-0.019-0.043 0.042-0.237 0.095-0.299 0.233-0.279 0.472-0.545 0.72-0.783 0.067-0.064 0.206-0.069 0.256 0.003 0.045 0.067 0.052 0.318 0.011 0.411-0.208 0.476-0.471 0.839-0.9 0.876z"></path>
<path d="M22.293 24.596c-0.18-0.031-0.258-0.034-0.333-0.061-0.032-0.012-0.079-0.073-0.080-0.113-0.003-0.091 0.011-0.18 0.041-0.257 0.039-0.072 0.089-0.124 0.146-0.149 0.278-0.137 0.555-0.274 0.837-0.385 0.061-0.024 0.19 0.042 0.198 0.099 0.018 0.136-0.004 0.3-0.036 0.438-0.017 0.072-0.086 0.133-0.139 0.159-0.241 0.109-0.483 0.206-0.634 0.269z"></path>
<path d="M13.934 21.307c-0.020 0.139-0.052 0.447-0.115 0.737-0.016 0.072-0.137 0.141-0.193 0.115s-0.121-0.177-0.12-0.271c0.006-0.537 0.022-1.075 0.055-1.609 0.007-0.117 0.097-0.219 0.149-0.328 0.062 0.108 0.163 0.203 0.179 0.327 0.035 0.277 0.028 0.568 0.044 1.030z"></path>
<path d="M26.944 4.507c0-1.137 0.168-2 0.503-2.587 0.339-0.594 0.774-0.891 1.303-0.891s0.951 0.256 1.263 0.769c0.316 0.512 0.475 1.331 0.475 2.456s-0.168 1.975-0.503 2.55c-0.335 0.575-0.783 0.862-1.343 0.862-0.484 0-0.88-0.228-1.189-0.684-0.16-0.237-0.286-0.566-0.377-0.984-0.088-0.425-0.131-0.922-0.131-1.49zM28.733 1.123c-0.385 0-0.701 0.281-0.949 0.844-0.244 0.562-0.366 1.387-0.366 2.475s0.116 1.881 0.349 2.381c0.232 0.5 0.541 0.75 0.926 0.75 0.389 0 0.705-0.281 0.949-0.844 0.248-0.569 0.371-1.391 0.371-2.465 0-1.081-0.118-1.875-0.354-2.381-0.232-0.506-0.541-0.759-0.926-0.759z"></path>
<path d="M31.476 7.628h-0.474v-6.562h0.474v3.018h1.858v-3.018h0.475v6.562h-0.475v-3.45h-1.858v3.45z"></path>
<path d="M36.247 7.628h-0.074l0.497-6.562h0.189l1.2 6.065 1.195-6.065h0.189l0.497 6.562h-0.475l-0.394-5.249-1.034 5.249h-0.36l-1.046-5.184-0.383 5.184z"></path>
<path d="M43.105 1.066c0.072 0.119 0.109 0.272 0.109 0.459 0 0.156-0.021 0.316-0.063 0.478l-1.023 3.403v2.222h-0.474v-2.015l-1.143-4.546h0.486l1.092 4.228 0.994-3.29c0.042-0.156 0.063-0.319 0.063-0.487s-0.028-0.3-0.086-0.394l0.046-0.056z"></path>
<path d="M0.806 9.352c0.295-0.022 0.584-0.033 0.866-0.033 0.289 0 0.591 0.050 0.906 0.149 0.322 0.099 0.638 0.286 0.947 0.562 0.316 0.264 0.581 0.611 0.796 1.041 0.222 0.418 0.4 0.975 0.534 1.668s0.201 1.536 0.201 2.527c0 0.991-0.101 1.883-0.302 2.676-0.195 0.782-0.463 1.382-0.806 1.801-0.665 0.815-1.467 1.222-2.407 1.222-0.329 0-0.675-0.022-1.037-0.066h-0.504v-11.547h0.806zM0.836 20.767c0.141 0.022 0.319 0.033 0.534 0.033s0.376-0.006 0.483-0.017c0.107-0.011 0.255-0.055 0.443-0.132 0.188-0.088 0.363-0.204 0.524-0.347s0.329-0.352 0.504-0.628c0.181-0.286 0.336-0.622 0.463-1.008 0.289-0.903 0.433-2.081 0.433-3.535 0-1.035-0.077-1.927-0.232-2.676-0.154-0.76-0.332-1.322-0.534-1.685-0.195-0.363-0.433-0.65-0.715-0.859-0.282-0.22-0.507-0.347-0.675-0.38s-0.363-0.050-0.584-0.050c-0.222 0-0.436 0.017-0.645 0.050v11.233z"></path>
<path d="M27.107 20.899h-0.131v-11.563h0.342l4.19 10.688v-10.688h0.131v11.563h-0.735l-3.797-9.581v9.581z"></path>
<path d="M37.842 9.336h0.131v6.608c0 1.729-0.208 3.001-0.624 3.816-0.416 0.804-0.96 1.206-1.632 1.206-0.423 0-0.782-0.061-1.078-0.182-0.296-0.132-0.574-0.369-0.836-0.71-0.537-0.683-0.806-2.059-0.806-4.13v-6.608h0.836v6.591c0 2.004 0.185 3.342 0.554 4.014 0.188 0.33 0.383 0.556 0.584 0.677 0.208 0.121 0.456 0.182 0.745 0.182 0.645 0 1.158-0.385 1.541-1.156 0.389-0.782 0.584-2.021 0.584-3.717v-6.591z"></path>
<path d="M41.409 20.899h-0.836v-11.398h-1.742v-0.165h4.331v0.165h-1.753v11.398z"></path>
</symbol>
<symbol id="members" viewBox="0 0 31 32">
<path d="M11.412 0c-3.162 0-5.737 3.077-5.737 6.856s2.575 6.856 5.737 6.856c3.162 0 5.736-3.077 5.736-6.856s-2.575-6.856-5.736-6.856zM11.412 12.562c-2.639 0-4.78-2.566-4.78-5.713s2.147-5.713 4.78-5.713c2.64 0 4.78 2.566 4.78 5.713s-2.147 5.713-4.78 5.713z"></path>
<path d="M23.161 2.846c-2.376 0-4.305 2.306-4.305 5.145s1.93 5.145 4.305 5.145c2.376 0 4.305-2.306 4.305-5.145s-1.93-5.145-4.305-5.145zM23.161 12.001c-1.848 0-3.349-1.795-3.349-4.003s1.502-4.003 3.349-4.003c1.848 0 3.349 1.795 3.349 4.003s-1.502 4.003-3.349 4.003z"></path>
<path d="M30.862 20.679c-0.434-3.126-2.059-5.762-4.827-7.143 0 0-1.226 1.108-2.874 1.072-1.801-0.042-2.874-1.072-2.874-1.072s-1.337 0.596-2.416 1.837c-0.997-1.058-2.681-1.921-2.681-1.921s-1.543 1.402-3.783 1.381c-2.352-0.021-3.772-1.381-3.772-1.381s-5.085 2.089-6.159 9.176c0 0-1.15 3.757 1.513 9.372h16.852c0 0 1.197-2.488 1.408-4.003h8.382c2.059-3.729 1.232-7.318 1.232-7.318zM19.248 30.857h-15.667c-2.047-4.648-1.161-8.040-1.161-8.040 0.499-3.554 2.411-6.554 5.144-8.075 2.346 1.647 5.355 1.647 7.702 0 2.733 1.521 4.646 4.521 5.144 8.075-0.006 0 0.845 4.178-1.161 8.040zM29.073 26.855h-7.631c0.293-2.019-0.094-4.227-0.094-4.227-0.346-2.495-1.332-4.746-2.774-6.484 0.493-0.533 1.038-0.974 1.636-1.318 1.801 1.234 4.094 1.234 5.895 0 2.024 1.157 3.443 3.393 3.813 6.042 0 0 0.698 2.832-0.845 5.986z"></path>
</symbol>
<symbol id="speakers" viewBox="0 0 164 32">
<path d="M64.832 0.009h-64.832c0 0 3.289 16.712 11.665 16.499 3.968-0.098 8.706-2.868 13.305-1.27 5.74 2.007 10.8 16.762 18.716 16.762 9.2 0 14.342-21.966 25.67-14.533 6.783 4.449 9.88-8.498 18.043-8.498 6.714 0 9.131 13.329 17.912 13.329 8.96 0 9.042-10.052 17.123-10.052 8.314 0 7.797 19.755 14.34 19.755 6.055 0 5.955-19.586 13.452-19.586 10.745 0 13.745-12.414 13.745-12.414l-99.139 0.009z"></path>
</symbol>
<symbol id="star1" viewBox="0 0 34 32">
<path d="M15.24 1.561c0.504-1.552 2.699-1.552 3.204 0l2.558 7.872c0.225 0.694 0.872 1.164 1.602 1.164h8.277c1.632 0 2.31 2.088 0.99 3.047l-6.696 4.865c-0.59 0.429-0.837 1.189-0.612 1.883l2.558 7.872c0.504 1.552-1.272 2.842-2.592 1.883l-6.696-4.865c-0.59-0.429-1.39-0.429-1.98 0l-6.696 4.865c-1.32 0.959-3.096-0.331-2.592-1.883l2.558-7.872c0.225-0.694-0.022-1.454-0.612-1.883l-6.696-4.865c-1.32-0.959-0.642-3.047 0.99-3.047h8.277c0.73 0 1.376-0.47 1.602-1.164l2.558-7.872z"></path>
</symbol>
<symbol id="star2svg" viewBox="0 0 34 32">
<path stroke-linejoin="miter" stroke-linecap="butt" stroke-miterlimit="4" stroke-width="1.6842" d="M16.041 1.822c0.252-0.776 1.35-0.776 1.602 0l2.558 7.872c0.338 1.041 1.308 1.746 2.403 1.746h8.277c0.816 0 1.155 1.044 0.495 1.523l-6.696 4.865c-0.885 0.643-1.256 1.784-0.918 2.825l2.558 7.872c0.252 0.776-0.636 1.421-1.296 0.941l-6.696-4.865c-0.886-0.643-2.084-0.643-2.97 0l-6.696 4.865c-0.66 0.48-1.548-0.166-1.296-0.941l2.558-7.872c0.338-1.041-0.032-2.181-0.918-2.825l-6.696-4.865c-0.66-0.479-0.321-1.523 0.495-1.523h8.277c1.094 0 2.064-0.705 2.403-1.746l2.558-7.872z"></path>
</symbol>
<symbol id="tel" viewBox="0 0 32 32">
<path d="M29.43 21.004c-1.959 0-3.882-0.306-5.705-0.909-0.893-0.305-1.991-0.025-2.536 0.535l-3.598 2.716c-4.172-2.227-6.743-4.797-8.939-8.938l2.636-3.504c0.685-0.684 0.931-1.683 0.636-2.621-0.605-1.832-0.912-3.755-0.912-5.715 0-1.416-1.152-2.568-2.567-2.568h-5.876c-1.416 0-2.568 1.152-2.568 2.568 0 16.229 13.202 29.432 29.43 29.432 1.416 0 2.568-1.152 2.568-2.568v-5.86c0-1.416-1.152-2.568-2.568-2.568z"></path>
</symbol>
<symbol id="twitter" viewBox="0 0 32 32">
<path d="M32 5.441c-1.19 0.583-2.458 0.97-3.78 1.158 1.36-0.908 2.398-2.334 2.886-4.053-1.268 0.845-2.668 1.442-4.16 1.775-1.204-1.433-2.92-2.321-4.792-2.321-3.632 0-6.556 3.295-6.556 7.335 0 0.581 0.044 1.14 0.152 1.672-5.454-0.297-10.28-3.219-13.522-7.671-0.566 1.098-0.898 2.354-0.898 3.707 0 2.54 1.17 4.791 2.914 6.095-1.054-0.022-2.088-0.364-2.964-0.903 0 0.022 0 0.051 0 0.080 0 3.564 2.274 6.524 5.256 7.206-0.534 0.163-1.116 0.241-1.72 0.241-0.42 0-0.844-0.027-1.242-0.125 0.85 2.904 3.262 5.039 6.13 5.109-2.232 1.952-5.066 3.128-8.134 3.128-0.538 0-1.054-0.027-1.57-0.101 2.906 2.095 6.35 3.291 10.064 3.291 12.072 0 18.672-11.178 18.672-20.868 0-0.324-0.010-0.637-0.024-0.948 1.302-1.033 2.396-2.323 3.288-3.807z"></path>
</symbol>
<symbol id="menu-burger" viewBox="0 0 60 32">
      <path d="M2 0h56a2 2 0 1 1 0 4H2a2 2 0 1 1 0-4zM2 14h56a2 2 0 1 1 0 4H2a2 2 0 1 1 0-4zM2 28h56a2 2 0 1 1 0 4H2a2 2 0 1 1 0-4z"/>
    </symbol>
</defs>
</svg>
