<svg width="24" height="25" viewBox="0 0 24 25" fill="none" xmlns="http://www.w3.org/2000/svg">
<path d="M18.4653 11.6712C18.4653 6.43329 13.8452 3 9.23266 3C4.60168 3 0 6.44942 0 11.6712C0 13.6467 0.723986 15.5785 2.03864 17.1108C2.08894 17.1695 2.10821 17.2585 2.08889 17.3431C1.67597 19.1509 0.69797 20.7839 0.296672 21.4022C0.171844 21.5945 0.151313 21.8488 0.243141 22.066C0.332907 22.2784 0.510376 22.4084 0.708657 22.4084C0.713157 22.4084 0.71761 22.4084 0.722111 22.4083C2.68585 22.3497 4.96205 21.6874 6.36906 20.0342C6.41823 19.9764 6.48878 19.9536 6.55787 19.9732C7.42234 20.2183 8.32229 20.3425 9.23266 20.3425C13.8623 20.3423 18.4653 16.8943 18.4653 11.6712ZM6.7201 19.1555C6.41443 19.0688 6.09882 19.1733 5.87612 19.435C4.46907 21.0882 2.17149 21.4641 1.08385 21.5476C1.58067 20.728 2.38847 19.2227 2.76722 17.5643C2.8538 17.1853 2.76272 16.7811 2.52957 16.5092C1.33472 15.1166 0.703126 13.4436 0.703126 11.6712C0.703126 7.35323 4.52944 3.84028 9.23266 3.84028C13.9359 3.84028 17.7622 7.35318 17.7622 11.6712C17.7622 15.9892 13.9359 19.5021 9.23266 19.5021C8.37686 19.5021 7.53156 19.3854 6.7201 19.1555Z" fill="#674D40"/>
<path d="M20.7265 18.6521C22.7763 17.4142 24 15.3043 24 13.0081C24 9.76289 21.5453 6.98999 18.1632 6.41463C17.9713 6.38202 17.793 6.54162 17.7657 6.77135C17.7383 7.00108 17.872 7.21378 18.0642 7.2465C21.0963 7.76231 23.2969 10.1854 23.2969 13.0081C23.2969 14.9806 22.2175 16.8102 20.4094 17.9022C20.0578 18.1146 19.8694 18.584 19.9513 19.0439C20.1227 20.0066 20.4876 20.898 20.7795 21.5022C18.7034 21.0893 17.9165 19.8988 17.6677 19.3835C17.5141 19.0654 17.2268 18.8683 16.9168 18.8683C16.9159 18.8683 16.915 18.8683 16.9141 18.8683L16.8883 18.8683C16.4985 18.8683 16.1081 18.836 15.7282 18.7722C15.5364 18.74 15.3582 18.9 15.3312 19.1298C15.3042 19.3596 15.4381 19.572 15.6304 19.6043C16.0426 19.6735 16.4659 19.7085 16.8883 19.7085L16.9169 19.7085H16.9175C16.9763 19.7085 17.0303 19.7448 17.0586 19.8035C18.0108 21.7755 20.1996 22.279 21.0965 22.4039C21.2946 22.4315 21.4833 22.3233 21.589 22.121C21.6944 21.9192 21.6931 21.6693 21.5855 21.469C21.3153 20.9661 20.8332 19.9598 20.639 18.869C20.6235 18.7819 20.6595 18.6926 20.7265 18.6521Z" fill="#674D40"/>
<path d="M3.76209 10.1685C3.09021 10.1685 2.54364 10.8217 2.54364 11.6246C2.54364 12.4275 3.09021 13.0808 3.76209 13.0808C4.43396 13.0808 4.98053 12.4275 4.98053 11.6246C4.98053 10.8217 4.43396 10.1685 3.76209 10.1685ZM3.76209 12.2405C3.47793 12.2405 3.24678 11.9642 3.24678 11.6247C3.24678 11.2851 3.47797 11.0088 3.76209 11.0088C4.0462 11.0088 4.27739 11.2851 4.27739 11.6247C4.27739 11.9642 4.0462 12.2405 3.76209 12.2405Z" fill="#674D40"/>
<path d="M7.23799 10.1685C6.56614 10.1685 6.01959 10.8217 6.01959 11.6246C6.01959 12.4275 6.56614 13.0808 7.23799 13.0808C7.90984 13.0808 8.45639 12.4275 8.45639 11.6246C8.45639 10.8217 7.90984 10.1685 7.23799 10.1685ZM7.23799 12.2405C6.95384 12.2405 6.7227 11.9642 6.7227 11.6247C6.7227 11.2851 6.95389 11.0088 7.23799 11.0088C7.5221 11.0088 7.75328 11.2851 7.75328 11.6247C7.75328 11.9642 7.52214 12.2405 7.23799 12.2405Z" fill="#674D40"/>
<path d="M10.7139 10.1685C10.042 10.1685 9.49542 10.8217 9.49542 11.6246C9.49542 12.4275 10.042 13.0808 10.7139 13.0808C11.3857 13.0808 11.9323 12.4275 11.9323 11.6246C11.9323 10.8217 11.3857 10.1685 10.7139 10.1685ZM10.7139 12.2405C10.4297 12.2405 10.1986 11.9642 10.1986 11.6247C10.1986 11.2851 10.4298 11.0088 10.7139 11.0088C10.998 11.0088 11.2292 11.2851 11.2292 11.6247C11.2292 11.9642 10.998 12.2405 10.7139 12.2405Z" fill="#674D40"/>
<path d="M14.1898 10.1685C13.5179 10.1685 12.9714 10.8217 12.9714 11.6246C12.9714 12.4275 13.5179 13.0808 14.1898 13.0808C14.8617 13.0808 15.4083 12.4275 15.4083 11.6246C15.4083 10.8217 14.8617 10.1685 14.1898 10.1685ZM14.1898 12.2405C13.9057 12.2405 13.6745 11.9642 13.6745 11.6247C13.6745 11.2851 13.9057 11.0088 14.1898 11.0088C14.4739 11.0088 14.7051 11.2851 14.7051 11.6247C14.7051 11.9642 14.4739 12.2405 14.1898 12.2405Z" fill="#674D40"/>
</svg>
