<svg width="24" height="25" viewBox="0 0 24 25" fill="none" xmlns="http://www.w3.org/2000/svg">
<path d="M17.3626 6.69687C17.2717 6.69687 17.1845 6.65629 17.1202 6.58404C17.0559 6.51179 17.0197 6.4138 17.0197 6.31162C16.9932 4.83564 16.4527 3.43019 15.5143 2.39692C14.5759 1.36365 13.3145 0.784913 12.0007 0.784913C10.6869 0.784913 9.42541 1.36365 8.48704 2.39692C7.54868 3.43019 7.0082 4.83564 6.98161 6.31162C6.98161 6.4138 6.94549 6.51179 6.88119 6.58404C6.81689 6.65629 6.72969 6.69687 6.63875 6.69687C6.54782 6.69687 6.46062 6.65629 6.39632 6.58404C6.33202 6.51179 6.2959 6.4138 6.2959 6.31162C6.31912 4.62873 6.93037 3.0236 7.9977 1.84274C9.06503 0.661873 10.5028 0 12.0007 0C13.4985 0 14.9363 0.661873 16.0037 1.84274C17.071 3.0236 17.6822 4.62873 17.7055 6.31162C17.7055 6.4138 17.6693 6.51179 17.605 6.58404C17.5407 6.65629 17.4535 6.69687 17.3626 6.69687Z" fill="#674D40"/>
<path d="M18.3634 15.4156C18.2725 15.4162 18.1851 15.3762 18.1204 15.3043C18.0557 15.2325 18.0191 15.1348 18.0185 15.0326C18.018 14.9304 18.0536 14.8322 18.1175 14.7595C18.1814 14.6868 18.2684 14.6456 18.3593 14.645C19.6651 14.6364 20.9156 14.0523 21.8422 13.0185C22.7688 11.9847 23.2974 10.5836 23.3143 9.11645C23.3014 7.63491 22.766 6.21962 21.8257 5.18103C20.8853 4.14243 19.6168 3.56534 18.2983 3.57633C17.7921 3.57539 17.2886 3.65927 16.8045 3.82521C16.718 3.85344 16.6251 3.8423 16.5459 3.7942C16.4666 3.7461 16.4074 3.66489 16.381 3.56813C16.3546 3.47138 16.3632 3.36683 16.4048 3.2771C16.4465 3.18737 16.5178 3.11965 16.6036 3.08858C17.1528 2.90025 17.724 2.80494 18.2983 2.80579C19.7986 2.79502 21.2414 3.45336 22.3103 4.63641C23.3792 5.81946 23.9869 7.43062 24 9.11645C23.9825 10.7861 23.3826 12.3814 22.3293 13.5593C21.276 14.7373 19.8535 15.4038 18.3676 15.4156H18.3634Z" fill="#674D40"/>
<path d="M5.63655 15.4156H5.63244C4.14648 15.4038 2.72397 14.7373 1.67071 13.5593C0.617459 12.3814 0.0175657 10.7861 0 9.11645C0.013134 7.43062 0.620793 5.81946 1.68968 4.63641C2.75857 3.45336 4.20141 2.79502 5.70169 2.80579C6.27597 2.80494 6.84715 2.90025 7.39643 3.08858C7.44007 3.10283 7.48076 3.12668 7.51612 3.15876C7.55149 3.19083 7.58083 3.23049 7.60243 3.27542C7.62403 3.32035 7.63747 3.36966 7.64196 3.42048C7.64645 3.4713 7.6419 3.52262 7.62858 3.57144C7.61527 3.62027 7.59344 3.66564 7.56438 3.7049C7.53532 3.74417 7.4996 3.77655 7.45931 3.80016C7.41901 3.82377 7.37494 3.83815 7.32965 3.84245C7.28436 3.84675 7.23877 3.84089 7.19552 3.82521C6.71135 3.65927 6.20787 3.57539 5.70169 3.57633C4.38321 3.56534 3.11468 4.14243 2.17435 5.18103C1.23401 6.21962 0.698658 7.63491 0.685712 9.11645C0.702663 10.5836 1.23124 11.9847 2.15781 13.0185C3.08437 14.0523 4.33494 14.6364 5.64066 14.645C5.68569 14.6453 5.73022 14.6556 5.77171 14.6752C5.81321 14.6949 5.85085 14.7235 5.8825 14.7595C5.91414 14.7955 5.93917 14.8381 5.95615 14.885C5.97313 14.9318 5.98173 14.982 5.98146 15.0326C5.98119 15.0832 5.97206 15.1332 5.95458 15.1799C5.9371 15.2265 5.91162 15.2688 5.87959 15.3043C5.84756 15.3399 5.80961 15.368 5.76791 15.3871C5.72621 15.4062 5.68158 15.4159 5.63655 15.4156Z" fill="#674D40"/>
<path d="M18.3634 24.9999H5.6365C5.54557 24.9999 5.45836 24.9593 5.39406 24.887C5.32976 24.8148 5.29364 24.7168 5.29364 24.6146V15.0308C5.29364 14.9286 5.32976 14.8306 5.39406 14.7583C5.45836 14.6861 5.54557 14.6455 5.6365 14.6455C5.72743 14.6455 5.81464 14.6861 5.87893 14.7583C5.94323 14.8306 5.97935 14.9286 5.97935 15.0308V24.2294H18.0205V15.0308C18.0205 14.9286 18.0566 14.8306 18.1209 14.7583C18.1852 14.6861 18.2724 14.6455 18.3634 14.6455C18.4543 14.6455 18.5415 14.6861 18.6058 14.7583C18.6701 14.8306 18.7062 14.9286 18.7062 15.0308V24.6146C18.7062 24.7168 18.6701 24.8148 18.6058 24.887C18.5415 24.9593 18.4543 24.9999 18.3634 24.9999Z" fill="#674D40"/>
<path d="M20.7497 21.2669H8.02285C7.93192 21.2669 7.84471 21.2263 7.78041 21.154C7.71611 21.0817 7.67999 20.9836 7.67999 20.8814C7.67999 20.7791 7.71611 20.6811 7.78041 20.6088C7.84471 20.5365 7.93192 20.4958 8.02285 20.4958H20.7497C20.8406 20.4958 20.9278 20.5365 20.9921 20.6088C21.0564 20.6811 21.0926 20.7791 21.0926 20.8814C21.0926 20.9836 21.0564 21.0817 20.9921 21.154C20.9278 21.2263 20.8406 21.2669 20.7497 21.2669Z" fill="#674D40"/>
</svg>
