<svg width="24" height="25" viewBox="0 0 24 25" fill="none" xmlns="http://www.w3.org/2000/svg">
<g clip-path="url(#clip0_6501_61)">
<path d="M8.91557 0C6.44561 0 4.4339 2.40413 4.4339 5.3559C4.4339 8.30767 6.44561 10.7118 8.91557 10.7118C11.3855 10.7118 13.3972 8.30767 13.3972 5.3559C13.3972 2.40413 11.3855 0 8.91557 0ZM8.91557 9.81367C6.85345 9.81367 5.18084 7.80932 5.18084 5.35042C5.18084 2.89153 6.85803 0.887173 8.91557 0.887173C10.9777 0.887173 12.6503 2.89153 12.6503 5.35042C12.6503 7.80932 10.9731 9.81367 8.91557 9.81367Z" fill="#674D40"/>
<path d="M18.0944 2.22314C16.2385 2.22314 14.7308 4.02491 14.7308 6.24289C14.7308 8.46086 16.2385 10.2626 18.0944 10.2626C19.9503 10.2626 21.458 8.46086 21.458 6.24289C21.458 4.02491 19.9503 2.22314 18.0944 2.22314ZM18.0944 9.37544C16.6509 9.37544 15.4778 7.97346 15.4778 6.24836C15.4778 4.52327 16.6509 3.12129 18.0944 3.12129C19.5379 3.12129 20.711 4.52327 20.711 6.24836C20.711 7.97346 19.5379 9.37544 18.0944 9.37544Z" fill="#674D40"/>
<path d="M24.1112 16.1555C23.7721 13.713 22.5027 11.6539 20.3398 10.575C20.3398 10.575 19.382 11.4403 18.0944 11.4129C16.6875 11.38 15.8489 10.575 15.8489 10.575C15.8489 10.575 14.8041 11.0405 13.961 12.0098C13.1819 11.1829 11.8667 10.5093 11.8667 10.5093C11.8667 10.5093 10.6615 11.6046 8.91103 11.5881C7.07345 11.5717 5.96449 10.5093 5.96449 10.5093C5.96449 10.5093 1.99146 12.1413 1.15286 17.6779C1.15286 17.6779 0.254689 20.6133 2.33514 24.9999H15.5007C15.5007 24.9999 16.4355 23.0558 16.6005 21.8729H23.1489C24.7573 18.9594 24.1112 16.1555 24.1112 16.1555ZM15.0378 24.1073H2.79798C1.19868 20.4764 1.89064 17.8258 1.89064 17.8258C2.28015 15.0492 3.77405 12.7053 5.9095 11.5169C7.7425 12.8039 10.0933 12.8039 11.9263 11.5169C14.0618 12.7053 15.5557 15.0492 15.9452 17.8258C15.9406 17.8258 16.6051 21.0897 15.0378 24.1073ZM22.7135 20.9802H16.7517C16.9808 19.403 16.6784 17.6779 16.6784 17.6779C16.408 15.7283 15.6381 13.9704 14.5109 12.6122C14.8958 12.196 15.322 11.851 15.7894 11.5827C17.1962 12.5465 18.988 12.5465 20.3948 11.5827C21.9757 12.4863 23.0847 14.2332 23.3734 16.3033C23.3734 16.3033 23.9187 18.5158 22.7135 20.9802Z" fill="#674D40"/>
</g>
<defs>
<clipPath id="clip0_6501_61">
<rect width="24" height="25" fill="white"/>
</clipPath>
</defs>
</svg>
